<svg xmlns="http://www.w3.org/2000/svg" xmlns:xlink="http://www.w3.org/1999/xlink" width="118.688" height="134.208" viewBox="0 0 118.688 134.208">
  <defs>
    <clipPath id="clip-path">
      <rect id="illustration_Background_Mask_" data-name="illustration (Background/Mask)" width="118.688" height="134.208" fill="none"/>
    </clipPath>
  </defs>
  <g id="illustration" clip-path="url(#clip-path)">
    <path id="Vector" d="M.358,95.457H.314A.355.355,0,0,1,0,95.068c0-.012.086-.746.268-2.1a.34.34,0,0,1,.334-.3.351.351,0,0,1,.053,0,.338.338,0,0,1,.3.388C.777,94.359.687,95.135.686,95.143A.318.318,0,0,1,.358,95.457ZM.91,91.263H.865a.363.363,0,0,1-.238-.145.323.323,0,0,1-.06-.243c.04-.287.083-.583.127-.891.056-.385.113-.78.171-1.2a.352.352,0,0,1,.349-.3.356.356,0,0,1,.352.407c-.084.525-.152,1.02-.218,1.5q-.041.3-.08.575A.379.379,0,0,1,.91,91.263Zm43.579-.731h-.224a2.955,2.955,0,0,1-1.847-.97.352.352,0,0,1,0-.493.352.352,0,0,1,.492,0,2.293,2.293,0,0,0,1.415.777h.132a.345.345,0,0,1,.032.688Zm1.429-1.224a.285.285,0,0,1-.178-.06.357.357,0,0,1-.12-.477,10.619,10.619,0,0,0,.864-1.836.347.347,0,0,1,.317-.22.337.337,0,0,1,.13.027.341.341,0,0,1,.193.447,10.78,10.78,0,0,1-.923,1.94A.326.326,0,0,1,45.918,89.308Zm-4.483-1.328a.328.328,0,0,1-.3-.179c-.313-.539-.639-1.177-.968-1.9a.352.352,0,0,1,.178-.463.369.369,0,0,1,.143-.029.342.342,0,0,1,.319.208c.3.662.606,1.279.923,1.836a.327.327,0,0,1,.041.261.366.366,0,0,1-.16.216A.4.4,0,0,1,41.435,87.979ZM1.52,87.114H1.461a.333.333,0,0,1-.22-.133.358.358,0,0,1-.062-.27c.074-.47.155-.954.241-1.466v-.008q.05-.3.1-.6a.337.337,0,0,1,.342-.288.387.387,0,0,1,.06,0,.333.333,0,0,1,.22.133.358.358,0,0,1,.062.27q-.065.391-.125.77c-.072.45-.141.876-.217,1.3A.33.33,0,0,1,1.52,87.114Zm45.962-1.686a.248.248,0,0,1-.1-.015.371.371,0,0,1-.239-.433c.181-.617.372-1.281.552-2.014a.357.357,0,0,1,.339-.263.318.318,0,0,1,.077.01.347.347,0,0,1,.211.16.343.343,0,0,1,.042.258l-.054.2c-.173.653-.336,1.27-.511,1.825A.32.32,0,0,1,47.482,85.428Zm-7.79-1.254a.374.374,0,0,1-.328-.224q-.09-.246-.186-.5c-.175-.471-.355-.958-.529-1.481a.358.358,0,0,1,.223-.448.353.353,0,0,1,.111-.018.362.362,0,0,1,.335.242c.21.617.439,1.256.7,1.955a.345.345,0,0,1,0,.275.316.316,0,0,1-.189.172l-.048.014A.278.278,0,0,1,39.693,84.174ZM2.22,82.966H2.161a.346.346,0,0,1-.283-.4l.094-.532v-.006c.088-.5.179-1.011.277-1.537A.349.349,0,0,1,2.6,80.2a.338.338,0,0,1,.055,0,.33.33,0,0,1,.218.135.36.36,0,0,1,.065.268c-.111.579-.212,1.153-.31,1.708l-.062.352A.351.351,0,0,1,2.22,82.966Zm46.319-1.6a.138.138,0,0,1-.075-.014.355.355,0,0,1-.268-.418c.154-.648.312-1.395.447-2.044a.344.344,0,0,1,.335-.279.36.36,0,0,1,.081.009.344.344,0,0,1,.268.419c-.144.709-.294,1.4-.446,2.059A.383.383,0,0,1,48.54,81.368ZM38.323,80.2A.337.337,0,0,1,38,79.966l-.1-.317c-.166-.535-.339-1.088-.513-1.7A.326.326,0,0,1,37.4,77.7a.361.361,0,0,1,.218-.179.367.367,0,0,1,.108-.017.342.342,0,0,1,.324.255c.124.4.238.775.349,1.141l0,.009,0,.008c.087.288.172.568.256.842a.345.345,0,0,1-.223.433A.319.319,0,0,1,38.323,80.2ZM2.965,78.846H2.905a.33.33,0,0,1-.218-.135.36.36,0,0,1-.065-.268c.132-.661.267-1.354.4-2.059a.344.344,0,0,1,.336-.278.363.363,0,0,1,.08.009.345.345,0,0,1,.268.419L3.5,77.62l-.19.972A.357.357,0,0,1,2.965,78.846ZM49.4,77.264h-.075a.322.322,0,0,1-.222-.143.327.327,0,0,1-.046-.26c.091-.445.173-.9.261-1.375q.062-.338.126-.685a.349.349,0,0,1,.347-.288.337.337,0,0,1,.273.14.36.36,0,0,1,.065.268c-.063.334-.125.665-.186.988l0,.023-.007.035c-.066.349-.13.689-.191,1.013A.362.362,0,0,1,49.4,77.264ZM37.116,76.189a.35.35,0,0,1-.328-.254c-.192-.652-.388-1.329-.581-2.014a.355.355,0,0,1,.238-.433.345.345,0,0,1,.084-.01.369.369,0,0,1,.347.249c.2.7.394,1.379.581,2.015a.356.356,0,0,1-.238.433A.228.228,0,0,1,37.116,76.189ZM3.8,74.742a.131.131,0,0,1-.075-.015A.356.356,0,0,1,3.5,74.57a.342.342,0,0,1-.042-.261c.158-.732.3-1.391.446-2.045a.348.348,0,0,1,.352-.273.427.427,0,0,1,.065,0,.361.361,0,0,1,.224.153.34.34,0,0,1,.045.265c-.129.585-.271,1.235-.446,2.045A.351.351,0,0,1,3.8,74.742ZM50.163,73.13H50.1a.345.345,0,0,1-.284-.4c.133-.752.25-1.426.357-2.059a.338.338,0,0,1,.344-.288.387.387,0,0,1,.059,0,.333.333,0,0,1,.22.132.36.36,0,0,1,.062.271c-.127.747-.244,1.421-.357,2.059A.351.351,0,0,1,50.163,73.13Zm-14.179-.97a.338.338,0,0,1-.328-.254l-.565-2.014a.369.369,0,0,1,.238-.433.348.348,0,0,1,.085-.01.369.369,0,0,1,.347.249l.566,2.015a.371.371,0,0,1-.239.433.28.28,0,0,0-.062.008A.2.2,0,0,1,35.985,72.16ZM4.722,70.654a.111.111,0,0,1-.075-.015.336.336,0,0,1-.213-.153.348.348,0,0,1-.04-.265c.181-.775.342-1.443.491-2.045a.343.343,0,0,1,.418-.254.336.336,0,0,1,.213.153.348.348,0,0,1,.04.265c-.159.64-.321,1.317-.478,1.973l-.014.057A.379.379,0,0,1,4.722,70.654Zm46.156-1.642h-.059a.346.346,0,0,1-.284-.4c.061-.351.119-.708.176-1.054.054-.33.109-.67.167-1.006a.339.339,0,0,1,.344-.289.387.387,0,0,1,.059,0,.346.346,0,0,1,.283.4c-.055.322-.108.653-.155.945-.06.372-.122.754-.187,1.129A.37.37,0,0,1,50.878,69.012Zm-16.025-.9a.336.336,0,0,1-.328-.254l-.023-.08c-.184-.637-.372-1.292-.543-1.935a.356.356,0,0,1,.238-.433.3.3,0,0,1,.095-.015.372.372,0,0,1,.337.255l.29,1.007.29,1.007a.355.355,0,0,1-.238.433A.408.408,0,0,1,34.853,68.117ZM5.721,66.579a.185.185,0,0,1-.089-.015.361.361,0,0,1-.254-.433c.124-.477.256-.956.384-1.419l.007-.027q.081-.295.16-.584a.34.34,0,0,1,.431-.238.337.337,0,0,1,.209.162A.343.343,0,0,1,6.6,64.3c-.072.265-.146.534-.221.806l0,.012c-.108.393-.221.8-.326,1.2A.322.322,0,0,1,5.721,66.579Zm45.842-1.716H51.5a.345.345,0,0,1-.283-.4c.048-.313.1-.633.149-.942V63.51c.059-.366.121-.745.177-1.124a.338.338,0,0,1,.343-.288.388.388,0,0,1,.059,0,.345.345,0,0,1,.283.4c-.119.7-.224,1.4-.327,2.07A.353.353,0,0,1,51.563,64.863Zm-17.872-.776a.35.35,0,0,1-.328-.254l-.174-.585-.007-.022c-.142-.479-.279-.94-.416-1.393a.345.345,0,0,1,.223-.433.325.325,0,0,1,.1-.017.352.352,0,0,1,.328.24c.129.429.259.865.392,1.316l.005.018.006.02.192.646a.326.326,0,0,1-.021.254.361.361,0,0,1-.218.179C33.765,64.087,33.717,64.087,33.691,64.087ZM6.853,62.535a.28.28,0,0,1-.1-.015.369.369,0,0,1-.238-.432c.222-.729.426-1.389.625-2.015a.352.352,0,0,1,.329-.241.327.327,0,0,1,.1.017.346.346,0,0,1,.223.433c-.234.72-.434,1.374-.61,2A.321.321,0,0,1,6.853,62.535Zm45.365-1.805h-.059a.346.346,0,0,1-.283-.4l.328-2.074a.329.329,0,0,1,.4-.284.345.345,0,0,1,.283.4l-.328,2.075A.33.33,0,0,1,52.218,60.729Zm-19.749-.642a.334.334,0,0,1-.328-.239c-.228-.7-.458-1.392-.655-1.985a.358.358,0,0,1,.223-.448.352.352,0,0,1,.111-.018.364.364,0,0,1,.336.242l.043.13c.2.6.4,1.219.612,1.87a.345.345,0,0,1-.224.433.389.389,0,0,0-.071.009A.288.288,0,0,1,32.469,60.088Zm66.1-.21a.35.35,0,0,1-.342-.3.355.355,0,0,1,.3-.4,2.755,2.755,0,0,0,1.563-.88.35.35,0,0,1,.491,0,.353.353,0,0,1,0,.492,3.426,3.426,0,0,1-1.95,1.075A.118.118,0,0,1,98.567,59.878Zm-1.921-.507a.357.357,0,0,1-.209-.075,5.786,5.786,0,0,1-1.4-1.671.346.346,0,0,1,.12-.478.328.328,0,0,1,.176-.052.355.355,0,0,1,.3.172,5.661,5.661,0,0,0,1.237,1.492.356.356,0,0,1,.059.492A.4.4,0,0,1,96.647,59.371ZM8.133,58.55a.323.323,0,0,1-.12-.015.337.337,0,0,1-.208-.447c.228-.646.472-1.332.715-1.985a.363.363,0,0,1,.334-.227.354.354,0,0,1,.112.018.361.361,0,0,1,.209.448c-.231.606-.466,1.269-.7,1.969A.365.365,0,0,1,8.133,58.55ZM101.5,57.192a.343.343,0,0,1-.165-.045.349.349,0,0,1-.148-.463,14.16,14.16,0,0,0,.789-1.88.347.347,0,0,1,.326-.234.317.317,0,0,1,.121.024.345.345,0,0,1,.2.186.326.326,0,0,1,.006.263,13.727,13.727,0,0,1-.834,1.97A.355.355,0,0,1,101.5,57.192Zm-48.614-.6h-.059a.333.333,0,0,1-.225-.14.362.362,0,0,1-.058-.263c.048-.319.1-.643.152-.957v-.007c.059-.362.12-.737.175-1.111a.337.337,0,0,1,.342-.288.388.388,0,0,1,.059,0,.333.333,0,0,1,.225.14.362.362,0,0,1,.058.263c-.053.348-.11.7-.165,1.044s-.111.689-.163,1.031A.351.351,0,0,1,52.889,56.595Zm-21.775-.477a.344.344,0,0,1-.328-.224c-.21-.592-.43-1.169-.643-1.727l-.087-.228a.345.345,0,0,1,0-.274.319.319,0,0,1,.189-.174.34.34,0,0,1,.132-.026.329.329,0,0,1,.316.221l.14.367c.2.517.4,1.05.6,1.6a.354.354,0,0,1-.208.447.284.284,0,0,0-.048.006A.391.391,0,0,1,31.114,56.118Zm63.254-.194a.323.323,0,0,1-.313-.209c-.278-.641-.539-1.3-.774-1.97a.354.354,0,0,1,.208-.447.359.359,0,0,1,.115-.019.344.344,0,0,1,.332.227c.249.707.505,1.354.76,1.925a.351.351,0,0,1-.179.463A.268.268,0,0,1,94.368,55.923Zm-84.775-1.3a.424.424,0,0,1-.134-.031.36.36,0,0,1-.2-.2.315.315,0,0,1,0-.248c.274-.686.563-1.338.834-1.94A.343.343,0,0,1,10.418,52a.367.367,0,0,1,.142.029.352.352,0,0,1,.179.463l-.073.167c-.247.564-.5,1.146-.746,1.743A.376.376,0,0,1,9.593,54.625Zm93.324-1.373a.187.187,0,0,1-.09-.015.363.363,0,0,1-.253-.432c.2-.748.347-1.393.477-2.03a.343.343,0,0,1,.335-.278.36.36,0,0,1,.081.009.344.344,0,0,1,.268.418c-.163.729-.328,1.422-.491,2.06A.334.334,0,0,1,102.917,53.252Zm-49.373-.791h-.059a.344.344,0,0,1-.283-.4c.086-.568.18-1.123.28-1.711l.062-.363a.337.337,0,0,1,.342-.288.387.387,0,0,1,.06,0,.333.333,0,0,1,.22.133.358.358,0,0,1,.062.27c-.065.374-.126.755-.186,1.123l0,.013c-.05.306-.1.623-.154.938A.338.338,0,0,1,53.544,52.461ZM29.58,52.222a.323.323,0,0,1-.313-.209c-.313-.728-.643-1.431-.864-1.9a.343.343,0,0,1-.017-.275.324.324,0,0,1,.18-.188.35.35,0,0,1,.158-.038.326.326,0,0,1,.3.2c.288.578.584,1.226.879,1.925a.352.352,0,0,1-.179.463.524.524,0,0,0-.085.008A.41.41,0,0,1,29.58,52.222Zm63.373-.239a.333.333,0,0,1-.328-.254c-.176-.569-.361-1.214-.581-2.029a.371.371,0,0,1,.239-.433.348.348,0,0,1,.085-.01.369.369,0,0,1,.347.249c.2.756.394,1.41.58,2a.334.334,0,0,1-.022.261.35.35,0,0,1-.2.172A.167.167,0,0,1,92.953,51.984ZM11.32,50.8a.34.34,0,0,1-.164-.045.367.367,0,0,1-.169-.2.321.321,0,0,1,.021-.259c.332-.666.673-1.289,1.013-1.85a.357.357,0,0,1,.3-.172.328.328,0,0,1,.176.052.345.345,0,0,1,.12.478c-.4.7-.719,1.274-1,1.821A.3.3,0,0,1,11.32,50.8Zm92.49-1.642h-.06a.342.342,0,0,1-.283-.4c.077-.418.148-.855.222-1.317v-.005c.039-.243.079-.489.12-.737a.352.352,0,0,1,.348-.3.357.357,0,0,1,.054,0,.366.366,0,0,1,.3.4q-.051.315-.1.621v.009c-.081.508-.157.989-.241,1.444A.382.382,0,0,1,103.811,49.163Zm-76.077-.7a.328.328,0,0,1-.3-.179c-.355-.621-.731-1.225-1.087-1.746a.336.336,0,0,1,.089-.477.378.378,0,0,1,.2-.061.317.317,0,0,1,.273.15c.4.586.761,1.177,1.118,1.806a.364.364,0,0,1-.134.477A.527.527,0,0,1,27.734,48.461Zm26.5-.134h-.059a.345.345,0,0,1-.283-.4c.065-.374.127-.756.186-1.126v-.008c.05-.308.1-.625.154-.941a.34.34,0,0,1,.344-.288.386.386,0,0,1,.059,0,.346.346,0,0,1,.284.4c-.128.733-.242,1.395-.343,2.074A.351.351,0,0,1,54.229,48.327Zm37.607-.388a.365.365,0,0,1-.343-.269c-.1-.374-.189-.757-.289-1.162l0-.007q-.105-.429-.216-.875a.348.348,0,0,1,.254-.419.366.366,0,0,1,.081-.009.346.346,0,0,1,.336.263c.167.731.355,1.451.507,2.029a.351.351,0,0,1-.042.266.336.336,0,0,1-.212.153C91.9,47.939,91.867,47.939,91.836,47.939Zm-78.386-.732a.3.3,0,0,1-.194-.059.324.324,0,0,1-.145-.224.388.388,0,0,1,.056-.268,17.416,17.416,0,0,1,1.31-1.671.35.35,0,0,1,.261-.122.342.342,0,0,1,.231.092.338.338,0,0,1,.03.492c-.41.468-.836,1.011-1.266,1.612A.362.362,0,0,1,13.451,47.208Zm11.9-2.179a.338.338,0,0,1-.253-.119,10.126,10.126,0,0,0-1.475-1.358.357.357,0,0,1-.075-.492.369.369,0,0,1,.287-.143.346.346,0,0,1,.2.068,10.054,10.054,0,0,1,1.579,1.447.338.338,0,0,1-.03.492A.343.343,0,0,1,25.35,45.029Zm79.1-.014h-.045a.362.362,0,0,1-.238-.145.321.321,0,0,1-.059-.243c.085-.627.176-1.311.267-2.074a.341.341,0,0,1,.335-.3.352.352,0,0,1,.053,0,.361.361,0,0,1,.235.134.33.33,0,0,1,.063.254c-.091.753-.181,1.432-.268,2.088A.366.366,0,0,1,104.451,45.014Zm-49.522-.836H54.87a.344.344,0,0,1-.283-.4l0-.011q.177-1.025.355-2.049a.338.338,0,0,1,.343-.288.392.392,0,0,1,.059,0,.345.345,0,0,1,.283.4L55.45,42.87l-.178,1.025A.351.351,0,0,1,54.929,44.178ZM16.221,44.1a.316.316,0,0,1-.268-.134A.351.351,0,0,1,16,43.477a8.98,8.98,0,0,1,1.817-1.149.374.374,0,0,1,.145-.029.342.342,0,0,1,.317.194.356.356,0,0,1-.164.463,7.877,7.877,0,0,0-1.668,1.059A.33.33,0,0,1,16.221,44.1Zm74.706-.239h-.075a.349.349,0,0,1-.342-.268c-.063-.284-.129-.57-.195-.858l0-.008c-.089-.386-.18-.785-.265-1.18a.342.342,0,0,1,.042-.261.372.372,0,0,1,.308-.166.345.345,0,0,1,.335.278c.087.4.18.809.27,1.2.065.283.13.565.192.844a.34.34,0,0,1-.045.264.361.361,0,0,1-.223.153ZM22,42.672a.244.244,0,0,1-.1-.015,4.8,4.8,0,0,0-1.457-.229c-.145,0-.291.007-.434.02h-.028a.345.345,0,0,1-.031-.688c.159-.013.321-.02.479-.02a5.687,5.687,0,0,1,1.7.258.346.346,0,0,1,.223.433A.385.385,0,0,1,22,42.672Zm82.973-1.821h-.044a.321.321,0,0,1-.229-.122.346.346,0,0,1-.069-.267c.037-.34.078-.69.118-1.028v-.009c.04-.34.082-.691.119-1.036a.35.35,0,0,1,.359-.315h.028a.353.353,0,0,1,.312.388c-.081.768-.152,1.417-.238,2.09A.368.368,0,0,1,104.972,40.851ZM55.644,40.06h-.06a.345.345,0,0,1-.283-.4c.062-.357.128-.718.193-1.067.057-.308.121-.657.18-.992a.348.348,0,0,1,.346-.288.337.337,0,0,1,.055,0,.331.331,0,0,1,.219.135.359.359,0,0,1,.065.267c-.127.648-.241,1.306-.352,1.942l-.021.118A.338.338,0,0,1,55.644,40.06Zm34.375-.284h-.075a.351.351,0,0,1-.343-.269c-.128-.58-.27-1.23-.446-2.045A.341.341,0,0,1,89.2,37.2a.373.373,0,0,1,.306-.163.345.345,0,0,1,.335.279c.123.569.285,1.316.446,2.044a.344.344,0,0,1-.267.418Zm15.414-3.09h-.044a.353.353,0,0,1-.313-.388l.015-.149c.08-.692.15-1.315.208-1.94a.35.35,0,0,1,.359-.315h.028a.353.353,0,0,1,.312.389c-.08.683-.15,1.3-.209,1.94l-.014.149A.341.341,0,0,1,105.433,36.687Zm-49.015-.746h-.059a.331.331,0,0,1-.219-.136.36.36,0,0,1-.065-.268l.361-1.848.041-.211A.344.344,0,0,1,56.8,33.2a.31.31,0,0,1,.076.009.365.365,0,0,1,.23.161.312.312,0,0,1,.038.241l-.2,1.03-.2,1.03A.323.323,0,0,1,56.418,35.941Zm32.707-.268h-.075a.351.351,0,0,1-.343-.269c-.074-.343-.149-.683-.223-1.023s-.149-.679-.223-1.022a.34.34,0,0,1,.045-.265.371.371,0,0,1,.3-.163.345.345,0,0,1,.335.279l.092.422c.116.534.236,1.086.355,1.622a.345.345,0,0,1-.268.418Zm16.77-3.149h-.044a.354.354,0,0,1-.313-.388c.077-.722.171-1.457.253-2.09a.341.341,0,0,1,.334-.3.354.354,0,0,1,.053,0,.339.339,0,0,1,.3.388c-.048.366-.092.736-.134,1.094-.038.32-.077.651-.119.98A.317.317,0,0,1,105.9,32.523Zm-48.672-.687h-.075a.343.343,0,0,1-.268-.418c.077-.352.15-.709.221-1.055.068-.328.138-.668.211-1a.345.345,0,0,1,.335-.279.36.36,0,0,1,.081.009.343.343,0,0,1,.268.418c-.079.358-.156.727-.229,1.083-.066.316-.133.641-.2.961A.351.351,0,0,1,57.223,31.837Zm31.009-.254h-.075a.351.351,0,0,1-.343-.268c-.175-.809-.317-1.439-.462-2.045a.345.345,0,0,1,.268-.418.36.36,0,0,1,.081-.009.345.345,0,0,1,.336.278c.076.351.157.7.236,1.046s.153.662.226,1a.345.345,0,0,1-.268.418Zm18.185-3.223h-.045a.366.366,0,0,1-.238-.146.323.323,0,0,1-.06-.243c.091-.65.19-1.313.312-2.089a.339.339,0,0,1,.343-.288.39.39,0,0,1,.059,0,.345.345,0,0,1,.283.4c-.118.725-.214,1.355-.3,2.075A.37.37,0,0,1,106.417,28.36ZM58.1,27.733a.138.138,0,0,1-.075-.014.345.345,0,0,1-.268-.419c.1-.479.211-.952.316-1.409.05-.216.1-.427.145-.634a.34.34,0,0,1,.334-.264.345.345,0,0,1,.084.01.334.334,0,0,1,.212.152.349.349,0,0,1,.041.266q-.072.319-.148.646l0,.007c-.1.452-.212.919-.312,1.392A.309.309,0,0,1,58.1,27.733Zm29.207-.239h-.075a.351.351,0,0,1-.343-.269c-.071-.3-.141-.6-.208-.89l0-.009,0-.007c-.085-.369-.173-.75-.264-1.123a.346.346,0,0,1,.253-.418.318.318,0,0,1,.077-.01.358.358,0,0,1,.34.263c.147.6.319,1.32.476,2.045a.346.346,0,0,1-.253.418Zm29.906-.553h-.044a.34.34,0,0,1-.343-.3c-.06-.467-.166-1.2-.328-2.06a.361.361,0,0,1,.059-.264.332.332,0,0,1,.223-.138.386.386,0,0,1,.06,0,.337.337,0,0,1,.342.288c.127.683.237,1.386.328,2.089a.346.346,0,0,1-.07.267A.319.319,0,0,1,117.214,26.941Zm-10.128-2.731h-.059a.331.331,0,0,1-.219-.136.358.358,0,0,1-.064-.267c.14-.777.29-1.475.446-2.075a.344.344,0,0,1,.417-.254.336.336,0,0,1,.212.152.351.351,0,0,1,.042.266c-.159.651-.3,1.334-.432,2.029A.364.364,0,0,1,107.087,24.211Zm-48.032-.553a.2.2,0,0,1-.089-.014.336.336,0,0,1-.212-.153.349.349,0,0,1-.041-.266q.077-.3.152-.6c.125-.5.242-.97.369-1.425a.359.359,0,0,1,.35-.263.369.369,0,0,1,.082.009.332.332,0,0,1,.216.161.376.376,0,0,1,.037.272q-.083.332-.17.669c-.113.442-.229.9-.337,1.36A.384.384,0,0,1,59.055,23.658Zm27.2-.239a.365.365,0,0,1-.343-.269l-.043-.164c-.161-.619-.327-1.258-.478-1.865a.365.365,0,0,1,.253-.433.347.347,0,0,1,.083-.01.366.366,0,0,1,.349.264c.2.717.371,1.4.521,2.03a.348.348,0,0,1-.04.265.336.336,0,0,1-.213.153A.148.148,0,0,1,86.251,23.42Zm30.234-.6h-.074a.351.351,0,0,1-.343-.269c-.167-.667-.351-1.369-.566-1.985a.345.345,0,0,1,.223-.433.328.328,0,0,1,.1-.017.352.352,0,0,1,.329.241c.2.605.4,1.293.581,2.044a.348.348,0,0,1-.254.418Zm-8.4-2.671a.247.247,0,0,1-.1-.015.356.356,0,0,1-.223-.447,11.444,11.444,0,0,1,.834-1.985.343.343,0,0,1,.3-.176.385.385,0,0,1,.173.042.357.357,0,0,1,.134.478,10.645,10.645,0,0,0-.789,1.865A.356.356,0,0,1,108.085,20.152ZM60.112,19.6a.184.184,0,0,1-.089-.015.335.335,0,0,1-.209-.161.342.342,0,0,1-.029-.271c.191-.678.387-1.374.581-2.015a.371.371,0,0,1,.348-.249.345.345,0,0,1,.084.01.369.369,0,0,1,.238.433c-.193.639-.388,1.317-.581,2.014A.355.355,0,0,1,60.112,19.6Zm25.17-.224h-.119a.336.336,0,0,1-.328-.254c-.212-.75-.4-1.4-.581-2a.325.325,0,0,1,.02-.253.361.361,0,0,1,.218-.179.324.324,0,0,1,.1-.017.348.348,0,0,1,.329.256l.061.2c.178.589.362,1.2.535,1.812a.355.355,0,0,1-.238.433Zm29.787-.522a.347.347,0,0,1-.312-.194,7,7,0,0,0-1.058-1.686.354.354,0,0,1,.26-.585.351.351,0,0,1,.262.122,7.787,7.787,0,0,1,1.162,1.835.343.343,0,0,1,.017.275.324.324,0,0,1-.18.188A.291.291,0,0,1,115.07,18.853Zm-4.811-2.179a.355.355,0,0,1-.283-.149.369.369,0,0,1-.056-.261.319.319,0,0,1,.145-.216,3.362,3.362,0,0,1,1.925-.686,2.5,2.5,0,0,1,.265.014.329.329,0,0,1,.234.127.372.372,0,0,1,.078.261.353.353,0,0,1-.359.315h-.028a1.649,1.649,0,0,0-.189-.011,2.764,2.764,0,0,0-1.524.562A.588.588,0,0,1,110.259,16.674Zm-48.94-1.089a.248.248,0,0,1-.1-.015.351.351,0,0,1-.2-.172.333.333,0,0,1-.023-.261c.26-.8.473-1.432.67-2a.346.346,0,0,1,.325-.233.316.316,0,0,1,.122.024.343.343,0,0,1,.2.184.326.326,0,0,1,.007.263c-.194.545-.4,1.157-.67,1.985A.344.344,0,0,1,61.319,15.585Zm22.623-.224a.332.332,0,0,1-.328-.239c-.268-.819-.479-1.427-.686-1.969a.356.356,0,0,1,.209-.448.362.362,0,0,1,.114-.018.346.346,0,0,1,.333.227c.214.6.458,1.286.685,1.985a.37.37,0,0,1-.223.447A.248.248,0,0,1,83.942,15.361ZM62.7,11.63a.275.275,0,0,1-.12-.03.342.342,0,0,1-.193-.447c.306-.765.561-1.387.8-1.956a.341.341,0,0,1,.319-.207.373.373,0,0,1,.143.028.352.352,0,0,1,.178.463c-.3.686-.559,1.316-.789,1.925A.411.411,0,0,1,62.7,11.63Zm19.808-.209a.368.368,0,0,1-.328-.224c-.319-.8-.571-1.386-.819-1.91a.352.352,0,0,1,.178-.463.369.369,0,0,1,.143-.029A.341.341,0,0,1,82.005,9c.29.626.565,1.3.82,1.94a.347.347,0,0,1-.005.276.316.316,0,0,1-.188.172A.162.162,0,0,1,82.512,11.421ZM64.387,7.795a.435.435,0,0,1-.142-.027l-.007,0a.341.341,0,0,1-.175-.2.33.33,0,0,1,.026-.259c.316-.633.656-1.261,1.012-1.866a.357.357,0,0,1,.3-.172.328.328,0,0,1,.176.052.346.346,0,0,1,.12.478c-.315.53-.636,1.126-.983,1.821A.456.456,0,0,1,64.387,7.795Zm16.4-.179a.385.385,0,0,1-.313-.179c-.344-.644-.69-1.246-1.028-1.791a.347.347,0,0,1-.048-.261.343.343,0,0,1,.153-.217.352.352,0,0,1,.189-.056.341.341,0,0,1,.288.161c.393.625.739,1.225,1.057,1.836a.35.35,0,0,1,.025.271.342.342,0,0,1-.174.207A.564.564,0,0,1,80.785,7.616Zm-14.253-3.4a.28.28,0,0,1-.209-.075.355.355,0,0,1-.075-.492,13.934,13.934,0,0,1,1.385-1.612.348.348,0,0,1,.491.492,12.655,12.655,0,0,0-1.31,1.537A.341.341,0,0,1,66.532,4.213Zm12-.12a.316.316,0,0,1-.268-.134,11.154,11.154,0,0,0-1.385-1.477.352.352,0,0,1-.03-.493.34.34,0,0,1,.255-.115.384.384,0,0,1,.237.086A13.712,13.712,0,0,1,78.8,3.526a.357.357,0,0,1-.06.493A.275.275,0,0,1,78.536,4.093ZM69.5,1.392a.328.328,0,0,1-.3-.179.349.349,0,0,1,.134-.477A5.867,5.867,0,0,1,71.342,0h.044a.358.358,0,0,1,.054,0,.355.355,0,0,1,.05.705h-.03a4.952,4.952,0,0,0-1.772.657l-.03.006A.814.814,0,0,1,69.5,1.392Zm5.927-.014a.34.34,0,0,1-.164-.045A6.134,6.134,0,0,0,73.428.691a.345.345,0,0,1-.283-.4A.338.338,0,0,1,73.488,0a.386.386,0,0,1,.059,0,6.55,6.55,0,0,1,2.04.716.364.364,0,0,1,.149.478A.355.355,0,0,1,75.423,1.378Z" transform="translate(1.16 17.352)" fill="#3d5cff" opacity="0.4"/>
    <path id="Vector-2" data-name="Vector" d="M21.12,38.9a48.991,48.991,0,0,1-5.749-25.967S13.554.3,8.654.029,2.771,1.3.671,8.028,1.654,37.5,6.42,49.157,22.5,70.185,22.5,70.185l14.73-18.222S25.513,47.128,21.12,38.9Z" transform="translate(3.291 15.522)" fill="#da5742"/>
    <path id="Vector-3" data-name="Vector" d="M1.087,16.207c.983-2.418,3.232-7.939,4.84-11.148C8.028.851,8.162,0,8.162,0L0,5.417C.149,8.671.521,12.387,1.087,16.207Z" transform="translate(3.366 27.355)" fill="#c43d28"/>
    <path id="Vector-4" data-name="Vector" d="M0,13.267a70.272,70.272,0,0,0,8.5,8.775L23.249,3.82A49.446,49.446,0,0,1,16.532,0Z" transform="translate(17.277 63.664)" fill="#c43d28"/>
    <path id="Vector-5" data-name="Vector" d="M14.432,0S27.047,5.3,34.047,5.029A60.87,60.87,0,0,1,57.162,8.984c7.849,2.955,13.866,12.909,16.115,17.55s4.066,13.76,4.066,13.76H55.613l4.2,23.027H5.317L13.3,28.5,0,18.252Z" transform="translate(22.177 64.679)" fill="#3d5cff"/>
    <path id="Vector-6" data-name="Vector" d="M22.321.113c-5.451.7-6.732,7.716-6.732,7.716s-7.879-.851-11.2,3.089c-3.783,4.492,2.249,7.716,2.249,7.716S.561,17.066.055,21.021c-.566,4.358,3.083,6.178,18.632,9.536S53.568,39.392,56.651,34.9c3.768-5.492-7.566-7.865-7.566-7.865s5.749.567,5.749-4.358S43.2,12.29,43.2,12.29s0-10.1-7.715-11.223c-5.436-.776-6.166,1.149-6.166,1.149S27.772-.589,22.321.113Z" transform="translate(33.903 31.869)" fill="#f99a3d"/>
    <path id="Vector-7" data-name="Vector" d="M2.83,14.327H7.894L0,0Z" transform="translate(75.064 90.646)" fill="#224bf4"/>
    <path id="Vector-8" data-name="Vector" d="M2.04,0,.983,1.328l-.67,12.3L8,19.55l-8,34.8H1.057l3.292-3.507L24.1,49.591l12.421,4.761h5.674L20.449,18.61Z" transform="translate(27.494 73.633)" fill="#224bf4"/>
    <path id="Vector-9" data-name="Vector" d="M.371,16.73c.834,3.656,4.9,5.477,4.9,5.477L4,30.773A6.688,6.688,0,0,0,10.022,34,8.747,8.747,0,0,0,15.9,31.608l1.266-12.491s5.049-.134,6.583-4.208c1.072-2.835-.566-5.328-3.083-5.477a4.032,4.032,0,0,0-3.649,2.1,4.918,4.918,0,0,1-3.083-4.208c-.417-3.373-.283-6.029-2.1-6.6a3.1,3.1,0,0,0-3.083.836A1.637,1.637,0,0,0,6.79.03C4.973.314,4.407,3.253,3.707,4.388A9.035,9.035,0,0,1,.371,7.328S-.463,13.088.371,16.73Z" transform="translate(51.638 40.234)" fill="#da5742"/>
    <path id="Vector-10" data-name="Vector" d="M12.195,60.948h0a13.548,13.548,0,0,1-4.75-1.059C3.276,58.1.594,54.063.086,48.815-.449,43.316,1.544,38,5.046,35.578A50.381,50.381,0,0,1,12.6,31.535l.069-.032c4.358-2.026,8.474-3.939,10.426-7.566a10.744,10.744,0,0,1-4.707-2.388c-1.988-1.693-2.934-3.729-2.532-5.447a4.019,4.019,0,0,1,3.974-3.374,4.168,4.168,0,0,1,.792.076c2.516.492,4.857,3.261,4.052,8.178a10.852,10.852,0,0,1-.73,2.522,6.768,6.768,0,0,0,.745.043,4.422,4.422,0,0,0,1.683-.3c1.387-.562,2.188-1.868,2.383-3.881.357-3.892-.719-6.973-3.113-8.909a11.852,11.852,0,0,0-7.461-2.3A17.723,17.723,0,0,0,12.865,9a11.35,11.35,0,0,1-3.378.561A7.425,7.425,0,0,1,7.474,9.3,4.115,4.115,0,0,1,4.585,6.94C3.9,5.125,4.82,2.218,9.693,0l.239.508C5.4,2.573,4.51,5.15,5.12,6.73c.535,1.392,2.208,2.256,4.366,2.256a10.715,10.715,0,0,0,3.216-.54,18.2,18.2,0,0,1,5.471-.858A12.435,12.435,0,0,1,26,10.013c2.545,2.059,3.694,5.31,3.322,9.4C29.07,22.178,27.7,23.31,26.6,23.774a5.253,5.253,0,0,1-1.93.333,7.364,7.364,0,0,1-.959-.064c-2,3.892-6.267,5.872-10.783,7.969A50.026,50.026,0,0,0,5.388,36.04C2.1,38.291.16,43.52.667,48.756c.492,5.027,3.054,8.9,7.03,10.611a13.332,13.332,0,0,0,4.558,1.014l-.059.566ZM19.776,13.3a3.587,3.587,0,0,0-3.366,2.94c-.343,1.513.537,3.343,2.354,4.9a10.292,10.292,0,0,0,4.6,2.3,9.419,9.419,0,0,0,.76-2.522c.745-4.536-1.346-7.086-3.6-7.537A3.327,3.327,0,0,0,19.776,13.3Z" transform="translate(37.55 68.141)" fill="#eaeaff" opacity="0.55"/>
    <path id="Vector-11" data-name="Vector" d="M9.766,46.636a17.1,17.1,0,0,1-7.6-1.492C.609,44.4-.153,42.528.025,39.876c.238-3.541,2.048-8.033,4.841-12.014,3.177-4.508,7.208-7.73,11.349-9.073a16.656,16.656,0,0,1,5.064-.836c.431,0,.862.02,1.281.059,4.588-2.475,9.249-5.656,12.258-12.118A7.981,7.981,0,0,0,35.041.164L35.577,0a8.567,8.567,0,0,1-.253,6.119,23.711,23.711,0,0,1-5.487,7.588,31.961,31.961,0,0,1-6.324,4.41,12.025,12.025,0,0,1,2.293.612A8.572,8.572,0,0,1,31,23.4c.893,2.328.33,5.506-3.931,7.448A13.3,13.3,0,0,1,21.557,32.1a9.417,9.417,0,0,1-6.28-2.162,4.548,4.548,0,0,1-1.49-4.925c.973-2.908,3.9-4.437,7.284-6.208.165-.083.352-.176.535-.284-.078,0-.163,0-.275,0a16.3,16.3,0,0,0-4.938.808c-9,2.907-15.37,14.131-15.8,20.58C.473,41.6.7,43.793,2.424,44.622a16.571,16.571,0,0,0,7.342,1.427,61.615,61.615,0,0,0,6.588-.481l.055-.006.834-.089.059.552-.834.09A54.482,54.482,0,0,1,9.766,46.636Zm12.9-28.041h0c-.438.226-.889.467-1.34.716l-.027.014c-3.407,1.789-6.1,3.2-6.973,5.881a3.981,3.981,0,0,0,1.34,4.327,8.838,8.838,0,0,0,5.9,2.018,12.8,12.8,0,0,0,5.288-1.2c3.275-1.491,4.673-4.07,3.649-6.73a8.047,8.047,0,0,0-4.871-4.343,11.823,11.823,0,0,0-2.964-.687Z" transform="translate(51.685 79.14)" fill="#eaeaff" opacity="0.55"/>
    <path id="Vector-12" data-name="Vector" d="M6.212,10.715a12.121,12.121,0,0,1-5.5-5.432C-.326,3.074-.222,1,.97,0l.357.433c-1,.821-1.043,2.627-.1,4.611,1.489,3.164,6.419,8.044,15.445,6.3l.1.552a20.423,20.423,0,0,1-3.738.358A15.128,15.128,0,0,1,6.212,10.715Z" transform="translate(74.526 72.589)" fill="#eaeaff" opacity="0.55"/>
    <path id="Vector-13" data-name="Vector" d="M22,0V.567H0V0Z" transform="translate(76.956 100.899)" fill="#eaeaff"/>
    <path id="Vector-14" data-name="Vector" d="M0,.7A.933.933,0,0,1,.983,0a.951.951,0,0,1,.983.7" transform="translate(61.675 46.01)" fill="#fff"/>
    <path id="Vector-15" data-name="Vector" d="M0,.716S.417-.12,1.117.015A1.1,1.1,0,0,1,1.951.85" transform="translate(54.675 45.711)" fill="#fff"/>
    <path id="Vector-16" data-name="Vector" d="M.8,1.239c-.149.4-.313.821-.432,1.239a1.712,1.712,0,0,0-.089.6.662.662,0,0,0,.343.418,4.185,4.185,0,0,0,1.206.448,3.392,3.392,0,0,1-.67-.06,2.58,2.58,0,0,1-.655-.209c-.045-.03-.1-.06-.149-.09a1.044,1.044,0,0,1-.149-.119.714.714,0,0,1-.194-.343A1.864,1.864,0,0,1,.088,2.4,6.5,6.5,0,0,1,.595,1.149,9.743,9.743,0,0,1,1.28,0C1.131.418.967.821.8,1.239Z" transform="translate(57.595 47.144)" fill="#1f1f39"/>
    <path id="Vector-17" data-name="Vector" d="M0,.418A3.071,3.071,0,0,0,2.234.985C3.351.7,3.5,0,3.5,0" transform="translate(58.175 52.755)" fill="#fff"/>
    <path id="Vector-18" data-name="Vector" d="M.834,2.119A.967.967,0,0,1,0,1.06.967.967,0,0,1,.834,0a.967.967,0,0,1,.834,1.06A.967.967,0,0,1,.834,2.119Z" transform="translate(54.406 47.83)" fill="#1f1f39"/>
    <path id="Vector-19" data-name="Vector" d="M.834,2.119A.967.967,0,0,1,0,1.06.967.967,0,0,1,.834,0a.967.967,0,0,1,.834,1.06A.967.967,0,0,1,.834,2.119Z" transform="translate(61.824 47.83)" fill="#1f1f39"/>
    <g id="Group" transform="translate(3.932 127.985)">
      <path id="Vector-20" data-name="Vector" d="M0,0H110.675" fill="#1f1f39"/>
    </g>
    <path id="Vector-21" data-name="Vector" d="M1.865,6.017C.835,6.017,0,4.67,0,3.009S.835,0,1.865,0,3.731,1.347,3.731,3.009,2.9,6.017,1.865,6.017Z" transform="translate(62.205 54.372) rotate(-85.132)" fill="#c43d28"/>
    <path id="Vector-22" data-name="Vector" d="M.5,31.769a1.7,1.7,0,0,1,0-2.418L29.292.5A1.7,1.7,0,0,1,31.7.5l2.338,2.343a1.7,1.7,0,0,1,0,2.418L5.254,34.112a1.7,1.7,0,0,1-2.413,0Z" transform="translate(0.005 0.005)" fill="#eaeaff"/>
    <path id="Vector-23" data-name="Vector" d="M.5,31.769a1.7,1.7,0,0,1,0-2.418L29.292.5A1.7,1.7,0,0,1,31.7.5l2.338,2.343a1.7,1.7,0,0,1,0,2.418L5.254,34.112a1.7,1.7,0,0,1-2.413,0Z" transform="translate(0.005 0.005)" fill="none"/>
    <g id="Group-2" data-name="Group" transform="translate(5.034 2.448)">
      <path id="Vector-24" data-name="Vector" d="M1.087,0,0,1.089,2.994,4.1A.77.77,0,1,0,4.081,3.015Z" transform="translate(21.223)" fill="#fffffe"/>
      <path id="Vector-25" data-name="Vector" d="M0,1.089,2.994,4.1A.77.77,0,1,0,4.081,3.015L1.087,0Z" transform="translate(18.543 2.686)" fill="#fffffe"/>
      <path id="Vector-26" data-name="Vector" d="M0,1.089,2.994,4.1A.77.77,0,0,0,4.081,3.015L1.087,0Z" transform="translate(16.16 5.074)" fill="#fffffe"/>
      <path id="Vector-27" data-name="Vector" d="M0,1.089,2.994,4.1A.77.77,0,1,0,4.081,3.015L1.087,0Z" transform="translate(13.33 7.91)" fill="#fffffe"/>
      <path id="Vector-28" data-name="Vector" d="M0,1.089,2.994,4.1A.77.77,0,0,0,4.081,3.015L1.087,0Z" transform="translate(10.649 10.596)" fill="#fffffe"/>
      <path id="Vector-29" data-name="Vector" d="M0,1.089,2.994,4.1A.77.77,0,1,0,4.081,3.015L1.087,0Z" transform="translate(8.266 12.984)" fill="#fffffe"/>
      <path id="Vector-30" data-name="Vector" d="M0,1.089,2.994,4.1A.77.77,0,0,0,4.081,3.015L1.087,0Z" transform="translate(5.064 16.192)" fill="#fffffe"/>
      <path id="Vector-31" data-name="Vector" d="M0,1.089,2.994,4.1A.77.77,0,0,0,4.081,3.015L1.087,0Z" transform="translate(2.383 18.878)" fill="#fffffe"/>
      <path id="Vector-32" data-name="Vector" d="M0,1.089,2.994,4.1A.77.77,0,1,0,4.081,3.015L1.087,0Z" transform="translate(0 21.266)" fill="#fffffe"/>
    </g>
    <path id="Vector-33" data-name="Vector" d="M.007,14.868a13.036,13.036,0,0,1,1.534-4.91A5.66,5.66,0,0,1,4.058,7.57S.141,4.9.007,2.377,1.69-.295,2.524.272,5.89,3.779,7.29,4.63s3.083.985,3.649,4.074-4.617,8.148-4.617,8.148" transform="translate(11.506 13.741)" fill="#da5742"/>
    <path id="Vector-34" data-name="Vector" d="M.159,6.6c-.834,2.1,1.817,5.193,3.083,5.761a2.922,2.922,0,0,0,3.083-.418,2.394,2.394,0,0,0,.7-1.686,3.553,3.553,0,0,0,2.383-.7,2.5,2.5,0,0,0,.7-2.239,2.289,2.289,0,0,0,1.966-.836c.7-.985.134-3.656-1.906-5.313C8.872.107,7.174-.43,6.176.42,4.33,2,.7,5.226.159,6.6Z" transform="translate(1.568 15.13)" fill="#da5742"/>
    <path id="Vector-35" data-name="Vector" d="M3.956,4.442.039.233a.14.14,0,0,1,0-.194.139.139,0,0,1,.194,0L4.165,4.263a.14.14,0,0,1,0,.194.142.142,0,0,1-.1.03A.135.135,0,0,1,3.956,4.442Z" transform="translate(7.75 18.078)" fill="#1f1f39"/>
    <path id="Vector-36" data-name="Vector" d="M3.681,4.3.032.226A.14.14,0,0,1,.047.032.139.139,0,0,1,.24.047L3.889,4.121a.14.14,0,0,1-.015.194.211.211,0,0,1-.089.03A.135.135,0,0,1,3.681,4.3Z" transform="translate(4.809 21.175)" fill="#1f1f39"/>
    <path id="Vector-37" data-name="Vector" d="M.136,12.76c-.089-.015-.149-.075-.134-.149a12.981,12.981,0,0,1,1.564-4.97A6.275,6.275,0,0,1,3.919,5.313a.6.6,0,0,0-.134-.075C2.7,4.567.166,2.97,0,.149A.147.147,0,0,1,.136,0,.147.147,0,0,1,.285.134C.434,2.806,2.8,4.283,3.934,5q.2.134.357.224l.238.164-.268.09A5.46,5.46,0,0,0,1.819,7.805,12.96,12.96,0,0,0,.3,12.655a.183.183,0,0,1-.164.1Z" transform="translate(11.674 15.983)" fill="#1f1f39"/>
    <path id="Vector-38" data-name="Vector" d="M28.066,0V.566H0V0Z" transform="translate(24.33 88.805) rotate(-53.5)" fill="#eaeaff"/>
    <path id="Vector-39" data-name="Vector" d="M3.2.418C2.026.179,1.251.134.685,0L0,4.611a10.951,10.951,0,0,0,3.753-.955A8.849,8.849,0,0,0,7.551.284,7.606,7.606,0,0,1,3.2.418Z" transform="translate(56.239 62.441)" fill="#c43d28"/>
    <path id="Vector-40" data-name="Vector" d="M3.628.845A17.462,17.462,0,0,1,.1.278.134.134,0,0,1,.009.1.133.133,0,0,1,.188.009a17.81,17.81,0,0,0,3.47.552A8.5,8.5,0,0,0,6.816.293a.139.139,0,0,1,.179.09.139.139,0,0,1-.089.179A8.259,8.259,0,0,1,4.477.875C4.209.875,3.926.86,3.628.845Z" transform="translate(56.795 62.297)" fill="#1f1f39"/>
    <path id="Vector-41" data-name="Vector" d="M1.833,3.373A8.911,8.911,0,0,1,3.233,0S1.639,0,.612,2.955A8.316,8.316,0,0,0,.031,6.611,9.438,9.438,0,0,0,1.863,6.3,9.774,9.774,0,0,1,1.833,3.373Z" transform="translate(68.808 52.74)" fill="#c43d28"/>
    <path id="Vector-42" data-name="Vector" d="M.136,5.894C.047,5.879-.013,5.82,0,5.745A10.65,10.65,0,0,1,.851,2.611,6.651,6.651,0,0,1,3.428.014a.146.146,0,0,1,.194.06.135.135,0,0,1-.06.194A6.479,6.479,0,0,0,1.1,2.731,10.685,10.685,0,0,0,.27,5.775a.158.158,0,0,1-.134.119Z" transform="translate(68.836 52.054)" fill="#1f1f39"/>
    <g id="Group-3" data-name="Group" transform="translate(17.217 66.634)">
      <path id="Vector-43" data-name="Vector" d="M9,60.829,0,0,49.6,54.8,9,60.829Zm.3-41.026L14.06,51.979l21.477-3.194Z" fill="#eaeaff"/>
      <g id="Group-4" data-name="Group" transform="translate(2.785 17.811)">
        <path id="Vector-44" data-name="Vector" d="M3.292.008,0,.5.223,2.022,3.515,1.53A.743.743,0,0,0,4.17.664.784.784,0,0,0,3.292.008Z" transform="translate(3.306 22.221)" fill="#fffffe"/>
        <path id="Vector-45" data-name="Vector" d="M3.306.008,0,.5.223,2.022,3.53,1.53A.771.771,0,0,0,4.185.664.784.784,0,0,0,3.306.008Z" transform="translate(2.204 14.819)" fill="#fffffe"/>
        <path id="Vector-46" data-name="Vector" d="M3.292.008,0,.5.223,2.022,3.515,1.53A.771.771,0,0,0,4.17.664.784.784,0,0,0,3.292.008Z" transform="translate(2.77 18.52)" fill="#fffffe"/>
        <path id="Vector-47" data-name="Vector" d="M3.277.008,0,.5.223,2.022,3.5,1.53A.752.752,0,0,0,4.155.664.784.784,0,0,0,3.277.008Z" transform="translate(4.423 29.623)" fill="#fffffe"/>
        <path id="Vector-48" data-name="Vector" d="M3.306.008,0,.5.223,2.022,3.53,1.53A.76.76,0,0,0,4.185.664.784.784,0,0,0,3.306.008Z" transform="translate(1.653 11.118)" fill="#fffffe"/>
        <path id="Vector-49" data-name="Vector" d="M3.292.008,0,.5.223,2.022,3.5,1.53A.753.753,0,0,0,4.17.664.784.784,0,0,0,3.292.008Z" transform="translate(3.857 25.922)" fill="#fffffe"/>
        <path id="Vector-50" data-name="Vector" d="M3.321.008,0,.5.223,2.022,3.545,1.53A.763.763,0,0,0,4.2.664.784.784,0,0,0,3.321.008Z" fill="#fffffe"/>
        <path id="Vector-51" data-name="Vector" d="M3.277.008,0,.5.223,2.022,3.5,1.53A.763.763,0,0,0,4.155.664.784.784,0,0,0,3.277.008Z" transform="translate(4.974 33.325)" fill="#fffffe"/>
        <path id="Vector-52" data-name="Vector" d="M3.321.008,0,.5.223,2.022,3.545,1.53A.735.735,0,0,0,4.2.664.784.784,0,0,0,3.321.008Z" transform="translate(0.536 3.701)" fill="#fffffe"/>
        <path id="Vector-53" data-name="Vector" d="M3.306.008,0,.5.223,2.022,3.53,1.53A.76.76,0,0,0,4.185.664.784.784,0,0,0,3.306.008Z" transform="translate(1.102 7.417)" fill="#fffffe"/>
      </g>
    </g>
    <g id="Group-5" data-name="Group" transform="translate(25.397 87.542)">
      <path id="Vector-54" data-name="Vector" d="M73.259,31.474c-.7,7.865-2.949,14.461-12.749,15.162S36.829,39.473,29.978,32.175,14.846,16.729,14.846,16.729a18.12,18.12,0,0,0-5.183.836c-2.383.836-4.349.7-4.9.134s-.417-.985-.417-.985-1.683-.134-2.1-1.269a1.837,1.837,0,0,1,0-1.686A2.488,2.488,0,0,1,.012,11.521c-.283-2.1,4.617-4.626,6.583-5.477a24.421,24.421,0,0,1,4.9-1.269s-3.083-.7-5.049,0-3.083-.134-3.083-1.4S5.88,0,9.946,0,20.595,2.806,24.095,5.895,52.959,20.774,52.959,20.774L52.393,17.4H73.125v.03A70.1,70.1,0,0,1,73.259,31.474Z" transform="translate(0)" fill="#da5742"/>
      <path id="Vector-55" data-name="Vector" d="M.026,5.137a.142.142,0,0,1,.03-.194C.086,4.928,2.469,3.092,4.688,1.7A12.13,12.13,0,0,1,8.515,0a.137.137,0,0,1,.164.119A.137.137,0,0,1,8.56.286,12.064,12.064,0,0,0,4.822,1.958C2.617,3.346.234,5.166.2,5.181A.644.644,0,0,1,.13,5.2.1.1,0,0,1,.026,5.137Z" transform="translate(2.115 8.728)" fill="#1f1f39"/>
      <path id="Vector-56" data-name="Vector" d="M.026,4.164a.142.142,0,0,1,.03-.194A29.6,29.6,0,0,1,5.135,1,10.81,10.81,0,0,1,8.277,0a.134.134,0,0,1,.134.134.134.134,0,0,1-.134.134,10.674,10.674,0,0,0-3.023.97A30.035,30.035,0,0,0,.234,4.164c-.03.06-.06.06-.089.06A.135.135,0,0,1,.026,4.164Z" transform="translate(4.201 12.64)" fill="#1f1f39"/>
      <path id="Vector-57" data-name="Vector" d="M0,0,.566,3.373,20.911,1.6c-.1-1.03-.179-1.6-.179-1.6Z" transform="translate(52.393 17.431)" fill="#c43d28"/>
      <g id="Group-6" data-name="Group" transform="translate(49.522 19.21)">
        <path id="Vector-58" data-name="Vector" d="M7.626,3.268,0,0" transform="translate(0.146 0.146)" fill="#1f1f39"/>
        <path id="Vector-59" data-name="Vector" d="M7.711,3.533.086.265A.136.136,0,0,1,.011.086.136.136,0,0,1,.19.011L7.816,3.28a.136.136,0,0,1,.074.179.125.125,0,0,1-.179.075Z" transform="translate(0 0)" fill="#1f1f39"/>
      </g>
    </g>
    <g id="Group-7" data-name="Group" transform="translate(74.719 89.39)">
      <path id="Vector-60" data-name="Vector" d="M0,0,3.5,18.8" transform="translate(0.137 0.137)" fill="#1f1f39"/>
      <path id="Vector-61" data-name="Vector" d="M3.5,18.971,0,.167A.137.137,0,0,1,.122,0,.137.137,0,0,1,.286.122l3.5,18.8a.137.137,0,0,1-.119.164h-.03A.141.141,0,0,1,3.5,18.971Z" transform="translate(0 0)" fill="#1f1f39"/>
    </g>
    <path id="Vector-62" data-name="Vector" d="M1.978.018A4.092,4.092,0,0,0,.071.272c-.06.925-.089,1.955-.06,3a4.566,4.566,0,0,0,1.653.463c1.668.134,3.083-.582,3.157-1.612S3.631.152,1.978.018Z" transform="translate(51.64 50.439)" fill="#c43d28"/>
    <circle id="Ellipse_73" data-name="Ellipse 73" cx="2.985" cy="2.985" r="2.985" transform="translate(93.549 14.386)" fill="#fff" opacity="0.52"/>
  </g>
</svg>
