<svg id="illustration" xmlns="http://www.w3.org/2000/svg" width="127.209" height="142.109" viewBox="0 0 127.209 142.109">
  <path id="Vector" d="M.288,2.96a.318.318,0,0,1-.255-.14.275.275,0,0,1,.113-.378l1.485-.8a.316.316,0,0,1,.14-.034.265.265,0,0,1,.242.145.277.277,0,0,1-.113.379l-1.485.8A.216.216,0,0,1,.288,2.96ZM3.272,1.35a.315.315,0,0,1-.254-.14A.276.276,0,0,1,3.131.831l1.486-.8A.317.317,0,0,1,4.756,0,.266.266,0,0,1,5,.145.3.3,0,0,1,5.02.363a.259.259,0,0,1-.135.16l-1.485.8A.208.208,0,0,1,3.272,1.35Z" transform="translate(49.027 119.678)" fill="#eaeaff"/>
  <path id="Vector-2" data-name="Vector" d="M19.832,90.6h0a.272.272,0,0,1-.283-.266.293.293,0,0,1,.269-.294c.55-.015,1.112-.057,1.669-.127h.027a.281.281,0,0,1,.22.46.279.279,0,0,1-.191.1C20.953,90.53,20.393,90.571,19.832,90.6Zm-1.7-.014H18.12a12.566,12.566,0,0,1-1.7-.2h-.014a.28.28,0,0,1-.183-.114.28.28,0,0,1,.229-.437.3.3,0,0,1,.052,0h.029a11.245,11.245,0,0,0,1.626.183.291.291,0,0,1,.269.294A.3.3,0,0,1,18.134,90.584Zm5.078-.349a.283.283,0,0,1-.057-.561c.483-.075.97-.172,1.485-.275l.17-.034a.3.3,0,0,1,.339.21.3.3,0,0,1-.212.336c-.5.112-1.035.21-1.683.308A.051.051,0,0,1,23.212,90.235Zm-8.416-.21a.126.126,0,0,1-.071-.014c-.53-.131-1.082-.3-1.641-.49a.307.307,0,0,1-.159-.144.246.246,0,0,1-.011-.207.291.291,0,0,1,.263-.186.248.248,0,0,1,.091.017c.467.163.975.314,1.6.477a.282.282,0,0,1,.175.134.257.257,0,0,1,.023.2A.271.271,0,0,1,14.8,90.025Zm11.811-.477h-.071a.27.27,0,0,1-.268-.209.266.266,0,0,1,.032-.216A.272.272,0,0,1,26.48,89c.523-.126,1.083-.282,1.625-.434a.31.31,0,0,1,.082-.011.28.28,0,0,1,.273.207.287.287,0,0,1-.025.217.279.279,0,0,1-.173.133c-.535.149-1.105.305-1.655.434ZM11.6,88.918a.278.278,0,0,1-.113-.028c-.625-.284-1.115-.529-1.542-.771a.262.262,0,0,1-.134-.16.282.282,0,0,1,.4-.33c.529.293,1.015.536,1.486.742a.27.27,0,0,1,.141.364A.253.253,0,0,1,11.6,88.918Zm18.2-.294a.285.285,0,0,1-.269-.2.273.273,0,0,1,.185-.35l.218-.07c.452-.144.919-.293,1.394-.462a.252.252,0,0,1,.093-.018.274.274,0,0,1,.26.186.281.281,0,0,1-.169.349c-.583.2-1.13.377-1.627.533A.21.21,0,0,1,29.8,88.624Zm3.211-1.106a.291.291,0,0,1-.269-.183.272.272,0,0,1,.005-.214.282.282,0,0,1,.165-.15l.056-.021c.5-.186,1.01-.379,1.528-.581a.277.277,0,0,1,.1-.019.284.284,0,0,1,.264.174.282.282,0,0,1-.155.364c-.388.152-.78.3-1.158.438l-.44.164A.135.135,0,0,1,33.015,87.518ZM8.657,87.266a.277.277,0,0,1-.17-.056c-.5-.363-.949-.711-1.358-1.065a.276.276,0,0,1,.186-.485.278.278,0,0,1,.182.066,15.416,15.416,0,0,0,1.3,1.022.267.267,0,0,1,.113.173.291.291,0,0,1-.043.219A.234.234,0,0,1,8.657,87.266Zm92.027-.154a5.913,5.913,0,0,1-.99-.085.28.28,0,0,1-.182-.113.279.279,0,0,1,.229-.438.3.3,0,0,1,.052,0,5.688,5.688,0,0,0,.906.074,5.59,5.59,0,0,0,.706-.045h.03a.269.269,0,0,1,.281.239.293.293,0,0,1-.058.209.258.258,0,0,1-.182.1l-.028,0C101.193,87.085,100.93,87.112,100.684,87.112Zm2.39-.477a.289.289,0,0,1-.269-.182.284.284,0,0,1,.156-.364,8.484,8.484,0,0,0,1.472-.742.27.27,0,0,1,.149-.044.3.3,0,0,1,.247.128.274.274,0,0,1,.037.212.292.292,0,0,1-.122.18,9.592,9.592,0,0,1-1.556.784l-.052.015A.224.224,0,0,1,103.074,86.635Zm-4.936-.14a.4.4,0,0,1-.118-.024l-.01,0a8.142,8.142,0,0,1-1.471-.953.271.271,0,0,1-.106-.19.266.266,0,0,1,.064-.2.278.278,0,0,1,.22-.106.269.269,0,0,1,.176.064,6.957,6.957,0,0,0,1.358.882.282.282,0,0,1,.143.163.276.276,0,0,1-.016.215A.26.26,0,0,1,98.138,86.5Zm-61.97-.21a.271.271,0,0,1-.251-.381.275.275,0,0,1,.152-.151c.465-.187.959-.4,1.556-.658a.3.3,0,0,1,.113-.022.27.27,0,0,1,.255.161.3.3,0,0,1,0,.213.254.254,0,0,1-.145.15c-.482.207-1.028.441-1.57.659A.153.153,0,0,1,36.168,86.285ZM6.111,85.039a.276.276,0,0,1-.212-.1,16.588,16.588,0,0,1-1.089-1.33.268.268,0,0,1-.057-.207.29.29,0,0,1,.113-.185.275.275,0,0,1,.169-.059.289.289,0,0,1,.227.114,15.137,15.137,0,0,0,1.047,1.275.293.293,0,0,1,.072.213.256.256,0,0,1-.086.179A.209.209,0,0,1,6.111,85.039Zm33.17-.1a.26.26,0,0,1-.255-.168.263.263,0,0,1-.009-.215.307.307,0,0,1,.15-.163l.486-.226c.348-.161.7-.327,1.042-.489a.287.287,0,0,1,.128-.03.283.283,0,0,1,.254.156.276.276,0,0,1,.016.215.282.282,0,0,1-.143.163l-.406.191c-.375.177-.762.359-1.136.524A.232.232,0,0,1,39.281,84.941ZM105.96,84.9a.279.279,0,0,1-.212-.1.285.285,0,0,1-.063-.212.269.269,0,0,1,.106-.18c.347-.285.8-.668,1.245-1.106a.275.275,0,0,1,.4,0,.271.271,0,0,1,0,.392c-.406.4-.823.777-1.274,1.149h0l0,0A.6.6,0,0,1,105.96,84.9Zm-10.453-.491a.253.253,0,0,1-.212-.1c-.293-.333-.574-.682-.834-1.036l-.113-.153-.114-.154a.289.289,0,0,1,.071-.392.292.292,0,0,1,.163-.048.279.279,0,0,1,.233.118c.061.085.135.188.226.308a8.307,8.307,0,0,0,.806.994.284.284,0,0,1-.028.392A.343.343,0,0,1,95.507,84.408ZM42.35,83.484a.3.3,0,0,1-.255-.154.279.279,0,0,1,.127-.378c.5-.253,1.014-.509,1.514-.757a.287.287,0,0,1,.128-.03.282.282,0,0,1,.254.156.277.277,0,0,1-.127.378c-.331.164-.664.335-.986.5l-.528.27a.393.393,0,0,0-.063.007A.387.387,0,0,1,42.35,83.484Zm66.029-.953a.3.3,0,0,1-.184-.07.281.281,0,0,1-.093-.191.273.273,0,0,1,.065-.2c.413-.492.746-.906,1.047-1.3a.29.29,0,0,1,.227-.115.274.274,0,0,1,.168.059.288.288,0,0,1,.114.192.268.268,0,0,1-.058.2c-.31.423-.672.87-1.076,1.33A.326.326,0,0,1,108.379,82.532Zm-104.262-.2a.278.278,0,0,1-.241-.14A14,14,0,0,1,3.1,80.669a.3.3,0,0,1,0-.214.254.254,0,0,1,.145-.151.307.307,0,0,1,.112-.021.27.27,0,0,1,.256.162c.211.471.457.952.75,1.47a.284.284,0,0,1-.1.378A.271.271,0,0,1,4.117,82.336Zm41.261-.405a.3.3,0,0,1-.255-.154.3.3,0,0,1-.023-.215.261.261,0,0,1,.136-.163l.742-.4.057-.031.685-.368a.317.317,0,0,1,.14-.034.263.263,0,0,1,.241.145.3.3,0,0,1,.023.215.26.26,0,0,1-.136.163c-.166.089-.333.18-.5.271-.324.177-.659.36-.987.527A.155.155,0,0,1,45.377,81.93Zm48.149-.239a.278.278,0,0,1-.24-.126c-.309-.48-.633-.988-.891-1.457a.294.294,0,0,1-.023-.215.261.261,0,0,1,.136-.163.314.314,0,0,1,.139-.033.266.266,0,0,1,.242.146c.293.516.576.983.863,1.428a.27.27,0,0,1,.038.207.292.292,0,0,1-.124.186A.5.5,0,0,1,93.526,81.691ZM48.334,80.3a.274.274,0,0,1-.24-.14.28.28,0,0,1,.1-.378c.491-.286,1-.572,1.471-.84a.281.281,0,0,1,.143-.04.272.272,0,0,1,.239.138.269.269,0,0,1-.1.378c-.318.189-.64.375-.951.554l-.519.3A.414.414,0,0,1,48.334,80.3ZM2.744,79.268a.283.283,0,0,1-.269-.2,15.645,15.645,0,0,1-.466-1.638.278.278,0,0,1,.212-.337.334.334,0,0,1,.059-.005.274.274,0,0,1,.281.216c.116.5.264,1.022.453,1.6a.291.291,0,0,1-.025.225.259.259,0,0,1-.159.125A.188.188,0,0,1,2.744,79.268Zm89.141-.518a.281.281,0,0,1-.255-.168,10.109,10.109,0,0,1-.552-1.639.285.285,0,0,1,.212-.336.333.333,0,0,1,.058-.005.286.286,0,0,1,.281.216,8.647,8.647,0,0,0,.524,1.541.286.286,0,0,1,0,.225.261.261,0,0,1-.153.139A.272.272,0,0,1,91.886,78.751ZM51.261,78.6a.29.29,0,0,1-.277-.348.292.292,0,0,1,.135-.184l.721-.441.721-.441a.269.269,0,0,1,.15-.044.3.3,0,0,1,.246.128.274.274,0,0,1,.037.212.292.292,0,0,1-.122.18c-.164.1-.329.2-.493.3-.313.194-.634.394-.95.578A.308.308,0,0,1,51.261,78.6ZM54.147,76.8a.278.278,0,0,1-.24-.126.29.29,0,0,1,.085-.392c.455-.291.9-.587,1.337-.874l.078-.051a.293.293,0,0,1,.162-.048.279.279,0,0,1,.234.118.3.3,0,0,1,.044.212.266.266,0,0,1-.115.18c-.244.161-.5.325-.74.484-.226.147-.452.294-.674.44A.338.338,0,0,1,54.147,76.8Zm-52.124-.8h0a.053.053,0,0,0-.042-.013.285.285,0,0,1-.283-.238,16.543,16.543,0,0,1-.17-1.695.274.274,0,0,1,.269-.294H1.82a.273.273,0,0,1,.273.267,15.6,15.6,0,0,0,.17,1.653.284.284,0,0,1-.241.322Zm89.17-.518h-.014a.309.309,0,0,1-.2-.095.254.254,0,0,1-.07-.2,5.84,5.84,0,0,1,.354-1.722.287.287,0,0,1,.367-.168.287.287,0,0,1,.17.364,5.222,5.222,0,0,0-.326,1.554A.279.279,0,0,1,91.193,75.488Zm-34.231-.561a.257.257,0,0,1-.227-.126.3.3,0,0,1-.044-.212.266.266,0,0,1,.115-.18l.035-.024c.447-.309.91-.628,1.351-.943a.29.29,0,0,1,.159-.048.3.3,0,0,1,.237.118.288.288,0,0,1-.07.392l-.195.138c-.389.277-.791.564-1.192.827A.265.265,0,0,1,56.962,74.927Zm2.758-1.96a.3.3,0,0,1-.227-.112.266.266,0,0,1-.056-.206.291.291,0,0,1,.113-.186c.446-.331.906-.672,1.344-1.008a.275.275,0,0,1,.169-.059.289.289,0,0,1,.227.114.272.272,0,0,1-.057.392c-.386.3-.83.631-1.358,1.023l-.03.011A.363.363,0,0,1,59.72,72.967ZM1.769,72.644a.282.282,0,0,1-.284-.28c.014-.551.029-1.12.086-1.695a.272.272,0,0,1,.282-.253h.029a.277.277,0,0,1,.189.1.282.282,0,0,1,.066.209c-.041.546-.07,1.1-.085,1.653A.282.282,0,0,1,1.769,72.644Zm90.5-.307a.278.278,0,0,1-.142-.042.286.286,0,0,1-.136-.181.252.252,0,0,1,.037-.2c.265-.447.571-.914.934-1.428a.277.277,0,0,1,.233-.118.3.3,0,0,1,.163.048.266.266,0,0,1,.113.172.292.292,0,0,1-.043.22l-.028.041c-.367.537-.656.962-.877,1.345A.282.282,0,0,1,92.268,72.337Zm-29.86-1.428a.3.3,0,0,1-.227-.112.272.272,0,0,1,.042-.392c.518-.413.948-.761,1.316-1.065a.3.3,0,0,1,.182-.064.288.288,0,0,1,.278.307.273.273,0,0,1-.106.192c-.394.324-.836.682-1.316,1.064A.236.236,0,0,1,62.408,70.908Zm31.756-1.345a.277.277,0,0,1-.17-.056.266.266,0,0,1-.114-.172.292.292,0,0,1,.042-.221c.29-.41.617-.874.962-1.372a.277.277,0,0,1,.233-.118.294.294,0,0,1,.163.048.266.266,0,0,1,.114.172.292.292,0,0,1-.042.221c-.241.359-.479.691-.709,1.012l-.267.375A.217.217,0,0,1,94.163,69.563ZM2.051,69.3H2.009a.294.294,0,0,1-.24-.322c.087-.564.187-1.125.3-1.667a.286.286,0,0,1,.286-.228.3.3,0,0,1,.053,0,.275.275,0,0,1,.178.115.294.294,0,0,1,.048.221c-.112.544-.212,1.095-.3,1.639A.3.3,0,0,1,2.051,69.3Zm62.973-.546a.253.253,0,0,1-.212-.1.276.276,0,0,1-.066-.2.279.279,0,0,1,.094-.191c.411-.353.835-.73,1.259-1.12a.3.3,0,0,1,.2-.072.265.265,0,0,1,.2.086.293.293,0,0,1,.072.213.256.256,0,0,1-.086.179c-.468.43-.884.8-1.273,1.12A.278.278,0,0,1,65.024,68.751Zm31.048-1.975a.33.33,0,0,1-.156-.042.285.285,0,0,1-.085-.392c.278-.425.552-.878.863-1.428a.268.268,0,0,1,.382-.1.256.256,0,0,1,.133.164.261.261,0,0,1-.034.214c-.247.429-.545.936-.877,1.443A.231.231,0,0,1,96.072,66.776Zm-28.544-.294a.281.281,0,0,1-.2-.084.262.262,0,0,1-.078-.2.27.27,0,0,1,.092-.2c.378-.361.807-.771,1.2-1.176a.275.275,0,0,1,.4,0,.268.268,0,0,1,0,.392c-.445.456-.843.845-1.217,1.191A.339.339,0,0,1,67.528,66.482Zm-64.8-.476a.124.124,0,0,1-.07-.014.282.282,0,0,1-.175-.134.257.257,0,0,1-.023-.2c.136-.511.291-1.017.481-1.624a.274.274,0,0,1,.271-.195.292.292,0,0,1,.083.012.26.26,0,0,1,.159.125.291.291,0,0,1,.024.225l-.02.063c-.16.5-.325,1.023-.461,1.534A.273.273,0,0,1,2.73,66.006ZM69.9,64.073a.34.34,0,0,1-.2-.07.27.27,0,0,1-.092-.2.262.262,0,0,1,.078-.2c.408-.448.773-.852,1.117-1.247a.286.286,0,0,1,.215-.093.275.275,0,0,1,.181.066.281.281,0,0,1,.094.191.274.274,0,0,1-.065.2c-.343.407-.7.8-1.131,1.274A.311.311,0,0,1,69.9,64.073Zm27.851-.21a.407.407,0,0,1-.12-.025l-.007,0a.278.278,0,0,1-.127-.379c.063-.126.138-.274.226-.434.167-.33.338-.7.5-1.064a.287.287,0,0,1,.266-.174.274.274,0,0,1,.254.17.279.279,0,0,1,0,.213c-.171.415-.342.788-.509,1.107-.043.094-.092.184-.139.27-.03.056-.06.11-.087.164A.3.3,0,0,1,97.756,63.863ZM3.776,62.813a.256.256,0,0,1-.1-.013.286.286,0,0,1-.169-.364c.229-.6.437-1.113.636-1.568A.272.272,0,0,1,4.4,60.7a.263.263,0,0,1,.118.028.267.267,0,0,1,.151.152.258.258,0,0,1-.009.211c-.207.473-.415.977-.636,1.541A.243.243,0,0,1,3.776,62.813Zm68.321-1.3a.247.247,0,0,1-.17-.056.284.284,0,0,1-.057-.392c.344-.436.686-.9.99-1.345a.28.28,0,0,1,.234-.118.293.293,0,0,1,.162.048.285.285,0,0,1,.071.393c-.345.5-.678.944-1.019,1.372A.274.274,0,0,1,72.1,61.511Zm26.974-.742a.177.177,0,0,1-.085-.014.259.259,0,0,1-.16-.125A.289.289,0,0,1,98.8,60.4c.187-.573.335-1.1.453-1.6a.285.285,0,0,1,.28-.215.331.331,0,0,1,.059.005.283.283,0,0,1,.212.336c-.14.553-.3,1.1-.466,1.639A.285.285,0,0,1,99.071,60.768ZM5.12,59.732a.41.41,0,0,1-.127-.028.279.279,0,0,1-.127-.378c.088-.184.183-.369.275-.547l.121-.237.02-.038c.119-.223.241-.452.376-.69a.267.267,0,0,1,.382-.1.252.252,0,0,1,.133.163.262.262,0,0,1-.034.215c-.13.219-.259.455-.382.7-.059.117-.122.237-.184.357-.073.141-.145.278-.212.413A.277.277,0,0,1,5.12,59.732Zm68.9-.994a.283.283,0,0,1-.24-.421,16.483,16.483,0,0,0,.792-1.456.286.286,0,0,1,.382-.127.279.279,0,0,1,.128.379c-.272.555-.54,1.045-.821,1.5A.315.315,0,0,1,74.021,58.738Zm25.857-1.232h-.042a.276.276,0,0,1-.227-.323c.091-.5.165-1.041.227-1.652a.285.285,0,0,1,.285-.253h.027a.284.284,0,0,1,.255.308c-.066.655-.141,1.2-.227,1.681A.326.326,0,0,1,99.878,57.505ZM6.8,56.819a.292.292,0,0,1-.156-.042.283.283,0,0,1-.122-.19.258.258,0,0,1,.051-.2c.3-.436.641-.9,1-1.372a.28.28,0,0,1,.224-.109.312.312,0,0,1,.172.053.283.283,0,0,1,.057.392c-.3.381-.579.77-.849,1.147l-.141.2A.3.3,0,0,1,6.8,56.819Zm68.688-1.107a.238.238,0,0,1-.1-.014.282.282,0,0,1-.17-.364,11.968,11.968,0,0,0,.382-1.289c.014-.049.025-.1.036-.147s.021-.1.036-.147a.286.286,0,0,1,.281-.216.336.336,0,0,1,.058.005.285.285,0,0,1,.212.336c-.014.049-.025.1-.035.147s-.021.1-.036.147a11.332,11.332,0,0,1-.41,1.359A.259.259,0,0,1,75.492,55.712ZM100.2,54.158a.282.282,0,0,1-.284-.281v-.462c0-.384-.013-.76-.026-1.125l0-.066a.254.254,0,0,1,.06-.188.307.307,0,0,1,.208-.106h.024a.285.285,0,0,1,.273.267c.029.4.043.815.043,1.219v.476A.3.3,0,0,1,100.2,54.158ZM8.869,54.144a.3.3,0,0,1-.184-.07.283.283,0,0,1-.028-.392c.341-.406.7-.8,1.131-1.274a.274.274,0,0,1,.206-.091.289.289,0,0,1,.282.272.262.262,0,0,1-.078.2c-.4.424-.771.848-1.118,1.247A.235.235,0,0,1,8.869,54.144Zm67.5-1.666a.107.107,0,0,1-.071-.014.281.281,0,0,1-.2-.35c.137-.493.3-1.024.5-1.624a.292.292,0,0,1,.278-.193.266.266,0,0,1,.075.011.291.291,0,0,1,.184.35c-.168.5-.339,1.051-.5,1.6A.272.272,0,0,1,76.369,52.478ZM11.16,51.665a.281.281,0,0,1-.2-.084.27.27,0,0,1,0-.392c.254-.261.515-.516.791-.786l.411-.4a.291.291,0,0,1,.2-.084A.256.256,0,0,1,12.56,50a.283.283,0,0,1,.085.21.248.248,0,0,1-.085.182q-.219.217-.437.43c-.267.261-.519.508-.765.76A.278.278,0,0,1,11.16,51.665Zm88.859-.84h0c0-.013-.014-.013-.028-.013a.287.287,0,0,1-.283-.238c-.076-.505-.18-1.017-.325-1.61a.276.276,0,0,1,.032-.219.258.258,0,0,1,.166-.118.283.283,0,0,1,.073-.01.27.27,0,0,1,.266.207,15.245,15.245,0,0,1,.339,1.68.262.262,0,0,1-.044.2.305.305,0,0,1-.2.123ZM13.594,49.312a.311.311,0,0,1-.212-.085.26.26,0,0,1-.078-.2.271.271,0,0,1,.092-.2l.226-.208c.332-.305.675-.62,1.032-.941a.3.3,0,0,1,.2-.072.265.265,0,0,1,.2.086.279.279,0,0,1-.013.392c-.234.216-.47.43-.7.636q-.282.255-.548.5A.341.341,0,0,1,13.594,49.312Zm63.85-.029a.241.241,0,0,1-.1-.014.273.273,0,0,1-.15-.147.281.281,0,0,1,0-.216c.2-.52.427-1.01.646-1.484l.033-.071a.284.284,0,0,1,.382-.126.279.279,0,0,1,.128.378c-.23.483-.453,1-.665,1.526A.315.315,0,0,1,77.443,49.284Zm21.7-1.722a.291.291,0,0,1-.269-.182,10.127,10.127,0,0,0-.707-1.485.276.276,0,0,1,.113-.379.318.318,0,0,1,.139-.033.264.264,0,0,1,.242.145,13.053,13.053,0,0,1,.736,1.555.279.279,0,0,1,0,.213.276.276,0,0,1-.152.15A.21.21,0,0,1,99.142,47.561ZM16.1,47.043a.253.253,0,0,1-.212-.1.283.283,0,0,1-.07-.213.253.253,0,0,1,.1-.179q.233-.2.466-.4c.267-.233.543-.472.821-.7a.278.278,0,0,1,.182-.066.284.284,0,0,1,.214.093.275.275,0,0,1,.066.2.279.279,0,0,1-.094.191c-.4.345-.857.736-1.273,1.107A.343.343,0,0,1,16.1,47.043Zm62.817-.784a.271.271,0,0,1-.141-.042.284.284,0,0,1-.136-.181.25.25,0,0,1,.037-.2c.264-.448.565-.9.948-1.428a.289.289,0,0,1,.227-.115.277.277,0,0,1,.169.059.291.291,0,0,1,.113.186.266.266,0,0,1-.056.206c-.319.43-.629.892-.92,1.372A.275.275,0,0,1,78.915,46.259ZM18.671,44.844a.256.256,0,0,1-.212-.1.274.274,0,0,1-.065-.2.281.281,0,0,1,.094-.191c.419-.36.859-.725,1.285-1.079l.017-.014a.275.275,0,0,1,.181-.066.276.276,0,0,1,.186.486c-.216.179-.433.362-.642.539l-.008.007c-.211.178-.43.363-.651.546A.291.291,0,0,1,18.671,44.844Zm78.83-.2a.3.3,0,0,1-.227-.112,9.006,9.006,0,0,0-1.117-1.2.271.271,0,0,1-.092-.2.26.26,0,0,1,.078-.2.275.275,0,0,1,.206-.092.268.268,0,0,1,.19.077A10.037,10.037,0,0,1,97.713,44.2a.272.272,0,0,1-.056.392A.29.29,0,0,1,97.5,44.648ZM80.951,43.57a.282.282,0,0,1-.2-.085.268.268,0,0,1,0-.392,11.05,11.05,0,0,1,1.3-1.134.276.276,0,0,1,.169-.059.29.29,0,0,1,.227.115.272.272,0,0,1-.057.392,11.1,11.1,0,0,0-1.23,1.078A.341.341,0,0,1,80.951,43.57Zm-59.677-.9a.255.255,0,0,1-.212-.1.265.265,0,0,1-.064-.2.273.273,0,0,1,.106-.191q.239-.2.478-.394l.005,0c.27-.221.55-.45.818-.68a.27.27,0,0,1,.177-.065.277.277,0,0,1,.219.106.266.266,0,0,1,.064.2.273.273,0,0,1-.106.191q-.224.186-.448.369l-.006,0c-.28.229-.569.466-.847.7A.45.45,0,0,1,21.274,42.674Zm73.738-.294a.33.33,0,0,1-.156-.042,10.243,10.243,0,0,0-1.457-.771.27.27,0,0,1-.152-.154.255.255,0,0,1,.011-.209.272.272,0,0,1,.251-.168.262.262,0,0,1,.117.027,11.32,11.32,0,0,1,1.528.813.285.285,0,0,1,.085.392A.276.276,0,0,1,95.012,42.38Zm-11.359-.813a.3.3,0,0,1-.255-.154.278.278,0,0,1,.128-.378,9.421,9.421,0,0,1,1.612-.644.313.313,0,0,1,.081-.011.277.277,0,0,1,.089.543,10.132,10.132,0,0,0-1.527.6A.16.16,0,0,1,83.653,41.567Zm8.261-.532a.106.106,0,0,1-.071-.014,12.741,12.741,0,0,0-1.259-.28c-.127-.028-.242-.042-.354-.056a.283.283,0,0,1,.057-.562h.028c.067.008.134.019.2.03s.115.02.168.026c.45.084.892.183,1.316.294a.281.281,0,0,1,.2.35A.3.3,0,0,1,91.914,41.035ZM86.878,40.6a.277.277,0,0,1-.283-.252.3.3,0,0,1,.056-.207.257.257,0,0,1,.184-.1,11.547,11.547,0,0,1,1.437-.087c.1,0,.2,0,.3,0a.273.273,0,0,1,.2.086.268.268,0,0,1,.069.208.275.275,0,0,1-.274.267h-.023c-.1,0-.2,0-.3,0a12.957,12.957,0,0,0-1.359.073c.006.006.006.009.006.01S86.889,40.6,86.878,40.6Zm-63-.084a.255.255,0,0,1-.212-.1.266.266,0,0,1-.064-.2.273.273,0,0,1,.106-.192l.542-.449.759-.629a.277.277,0,0,1,.181-.065.285.285,0,0,1,.215.094.273.273,0,0,1,.065.2.282.282,0,0,1-.093.191l-.3.25-.006,0-.994.824A.387.387,0,0,1,23.877,40.517Zm2.6-2.157a.253.253,0,0,1-.212-.1.283.283,0,0,1,.028-.392c.459-.382.9-.764,1.287-1.092a.276.276,0,0,1,.181-.065.285.285,0,0,1,.215.094.274.274,0,0,1,.066.2.28.28,0,0,1-.094.193c-.4.343-.819.692-1.225,1.029l-.076.064A.236.236,0,0,1,26.48,38.36Zm2.574-2.2a.258.258,0,0,1-.212-.1.283.283,0,0,1,.029-.392c.421-.365.81-.71,1.186-1.044l.087-.077a.29.29,0,0,1,.19-.07.256.256,0,0,1,.206.1.282.282,0,0,1,.07.213.253.253,0,0,1-.1.179c-.346.318-.714.636-1.1.972l-.171.148A.268.268,0,0,1,29.054,36.162Zm2.532-2.255a.316.316,0,0,1-.212-.084.263.263,0,0,1-.078-.2.27.27,0,0,1,.092-.194c.2-.188.4-.376.6-.557.219-.206.426-.4.634-.591a.274.274,0,0,1,.2-.079.275.275,0,0,1,.2.471c-.375.359-.8.765-1.245,1.163A.215.215,0,0,1,31.586,33.906Zm2.433-2.338a.282.282,0,0,1-.2-.085.27.27,0,0,1,0-.392c.38-.376.77-.786,1.16-1.218a.275.275,0,0,1,.207-.092.266.266,0,0,1,.189.077.271.271,0,0,1,.092.2.26.26,0,0,1-.078.2c-.372.4-.768.817-1.174,1.232A.239.239,0,0,1,34.018,31.568Zm2.306-2.479a.3.3,0,0,1-.184-.07.293.293,0,0,1-.1-.208.245.245,0,0,1,.072-.184c.43-.505.763-.919,1.047-1.3a.289.289,0,0,1,.226-.114.277.277,0,0,1,.17.059.289.289,0,0,1,.114.192.268.268,0,0,1-.058.2c-.289.386-.63.809-1.075,1.33A.275.275,0,0,1,36.324,29.089ZM38.361,26.4a.328.328,0,0,1-.155-.042.285.285,0,0,1-.086-.392c.339-.533.612-1,.835-1.428a.283.283,0,0,1,.254-.156.286.286,0,0,1,.127.03.281.281,0,0,1,.127.379c-.22.41-.516.948-.862,1.47A.28.28,0,0,1,38.361,26.4Zm1.528-2.982a.271.271,0,0,1-.1-.014.287.287,0,0,1-.17-.364,8.462,8.462,0,0,0,.41-1.568.293.293,0,0,1,.3-.239h.03a.3.3,0,0,1,.24.322,8.363,8.363,0,0,1-.439,1.667A.285.285,0,0,1,39.889,23.417Zm-30.61-2.41h0a.28.28,0,1,1,0-.56,13.972,13.972,0,0,0,1.655-.141.272.272,0,0,1,.047,0,.288.288,0,0,1,.278.243.26.26,0,0,1-.044.2.306.306,0,0,1-.2.123A16.087,16.087,0,0,1,9.279,21.008Zm-1.7-.111H7.539a8.094,8.094,0,0,1-1.7-.462.283.283,0,0,1-.156-.364.287.287,0,0,1,.266-.173.278.278,0,0,1,.1.019,7.8,7.8,0,0,0,1.57.435.3.3,0,0,1,.24.322A.286.286,0,0,1,7.582,20.9Zm5.05-.364a.272.272,0,0,1-.269-.21.266.266,0,0,1,.032-.216.27.27,0,0,1,.18-.12c.486-.12,1.051-.263,1.613-.448a.312.312,0,0,1,.081-.011.277.277,0,0,1,.088.543c-.6.188-1.171.332-1.654.448A.154.154,0,0,1,12.632,20.532ZM40.4,20.125H40.37a.289.289,0,0,1-.283-.252,5.992,5.992,0,0,0-.354-1.568.262.262,0,0,1,.006-.2.3.3,0,0,1,.164-.161A.25.25,0,0,1,40,17.923a.3.3,0,0,1,.274.186,6.98,6.98,0,0,1,.382,1.708A.284.284,0,0,1,40.4,20.125Zm-35.915-.5a.264.264,0,0,1-.169-.056,7.375,7.375,0,0,1-.991-.9,2.76,2.76,0,0,1-.268-.308.283.283,0,0,1,.028-.392.278.278,0,0,1,.182-.066A.284.284,0,0,1,3.479,18l.255.294a7.427,7.427,0,0,0,.92.84.284.284,0,0,1,.057.392A.337.337,0,0,1,4.484,19.621Zm11.387-.056a.289.289,0,0,1-.269-.182.264.264,0,0,1,.011-.214.3.3,0,0,1,.159-.15l.438-.16c.366-.133.744-.27,1.146-.429a.278.278,0,0,1,.1-.019.287.287,0,0,1,.266.173.283.283,0,0,1-.156.364c-.631.249-1.139.436-1.6.588A.2.2,0,0,1,15.871,19.565Zm3.169-1.218a.315.315,0,0,1-.269-.168.283.283,0,0,1,.156-.364c.262-.105.527-.215.785-.322s.523-.217.785-.322a.278.278,0,0,1,.1-.019.286.286,0,0,1,.266.174.28.28,0,0,1,0,.215.274.274,0,0,1-.151.148c-.541.232-1.088.451-1.57.644a.184.184,0,0,0-.04.006A.256.256,0,0,1,19.04,18.347Zm-16.8-1.218A.3.3,0,0,1,1.994,17a14.649,14.649,0,0,1-.877-1.485.277.277,0,0,1,.127-.378.285.285,0,0,1,.128-.03.282.282,0,0,1,.253.156,13.305,13.305,0,0,0,.835,1.415A.292.292,0,0,1,2.5,16.9a.266.266,0,0,1-.114.172A.238.238,0,0,1,2.235,17.129Zm19.945-.085a.277.277,0,0,1-.255-.168.281.281,0,0,1,0-.216.275.275,0,0,1,.152-.149c.51-.218,1.028-.426,1.529-.628l.041-.016a.275.275,0,0,1,.1-.019.287.287,0,0,1,.266.174.283.283,0,0,1-.156.364l-.055.022c-.5.2-1.01.405-1.516.622a.4.4,0,0,0-.068.008A.286.286,0,0,1,22.18,17.044ZM39.238,17a.278.278,0,0,1-.24-.126,7.043,7.043,0,0,0-1.033-1.247.271.271,0,0,1,0-.392.275.275,0,0,1,.4,0,8.809,8.809,0,0,1,1.118,1.345.274.274,0,0,1,.037.212.292.292,0,0,1-.122.18l-.023.006A.5.5,0,0,1,39.238,17ZM25.32,15.784a.291.291,0,0,1-.269-.182.283.283,0,0,1,.156-.364c.4-.153.766-.287,1.123-.416l.475-.173a.251.251,0,0,1,.093-.018.274.274,0,0,1,.26.186.259.259,0,0,1-.01.21.264.264,0,0,1-.16.139c-.449.153-.923.329-1.425.516l-.159.059A.087.087,0,0,1,25.32,15.784Zm11.486-1.078a.514.514,0,0,1-.142-.029A6.1,6.1,0,0,0,35.15,14.1a.279.279,0,0,1,.068-.551.335.335,0,0,1,.058.005,6.558,6.558,0,0,1,1.655.63.275.275,0,0,1-.127.519Zm-8.276-.029a.273.273,0,0,1-.268-.2.282.282,0,0,1,.2-.35c.592-.171,1.172-.314,1.669-.434a.336.336,0,0,1,.058-.005.279.279,0,0,1,.069.551c-.546.12-1.094.262-1.627.421A.288.288,0,0,1,28.53,14.677ZM.735,14.118a.271.271,0,0,1-.268-.2,11.532,11.532,0,0,1-.383-1.681.286.286,0,0,1,.24-.323.272.272,0,0,1,.047,0,.288.288,0,0,1,.278.242,9.2,9.2,0,0,0,.368,1.6.284.284,0,0,1-.184.35A.271.271,0,0,1,.735,14.118Zm31.147-.14h-.028a.277.277,0,0,1-.283-.252.284.284,0,0,1,.255-.308,12.739,12.739,0,0,1,1.457-.087c.1,0,.191,0,.284,0a.274.274,0,0,1,.268.294.273.273,0,0,1-.273.267h-.024q-.127,0-.257,0a11.67,11.67,0,0,0-1.4.088ZM.283,10.813A.286.286,0,0,1,0,10.518,11.882,11.882,0,0,1,.184,8.809a.275.275,0,0,1,.272-.229.3.3,0,0,1,.054,0A.28.28,0,0,1,.692,8.7a.272.272,0,0,1,.043.208,10.758,10.758,0,0,0-.184,1.624A.282.282,0,0,1,.283,10.813ZM.891,7.507a.188.188,0,0,1-.085-.013.273.273,0,0,1-.159-.134.283.283,0,0,1-.025-.216,15.152,15.152,0,0,1,.65-1.6.3.3,0,0,1,.269-.161.305.305,0,0,1,.113.022.3.3,0,0,1,.141.378,13.952,13.952,0,0,0-.623,1.526A.312.312,0,0,1,.891,7.507ZM2.32,4.468a.247.247,0,0,1-.142-.042.277.277,0,0,1-.1-.379c.247-.4.579-.913.962-1.414a.291.291,0,0,1,.227-.115.274.274,0,0,1,.169.059.288.288,0,0,1,.114.192.268.268,0,0,1-.058.2c-.324.428-.638.89-.933,1.373A.26.26,0,0,1,2.32,4.468Zm2.008-2.7a.3.3,0,0,1-.184-.07A.283.283,0,0,1,4.117,1.3,16.392,16.392,0,0,1,5.3.088L5.318.07A.29.29,0,0,1,5.508,0a.259.259,0,0,1,.207.1.283.283,0,0,1,.07.214.253.253,0,0,1-.1.178,14.386,14.386,0,0,0-1.16,1.191A.284.284,0,0,1,4.328,1.765Z" transform="translate(0 28.587)" fill="#5db571"/>
  <path id="Vector-3" data-name="Vector" d="M25.178,17.086c1.414,6.442,1.839,7.983,1.839,7.983H9.477L0,0,20.086,1.26A134.228,134.228,0,0,1,25.178,17.086Z" transform="translate(67.063 113.577)" fill="#f9d2dd"/>
  <path id="Vector-4" data-name="Vector" d="M0,0,2.263,5.882,22.49,7.843c-1.075-3.1-2.4-6.582-2.4-6.582Z" transform="translate(67.544 113.577)" fill="#f9acc0"/>
  <path id="Vector-5" data-name="Vector" d="M14.569,32.459,10.75,56.548H76.524L71.715,36.52l15.842-1.4S80.768,12.712,67.189,5.429s-33.1-6.862-45.264-.98C14.428,8.076,2.263,21.115,0,32.459Z" transform="translate(13.537 82.099)" fill="#3d5cff"/>
  <path id="Vector-6" data-name="Vector" d="M14.569,32.452,10.75,56.54H76.524L71.715,36.513l15.842-1.4S83.88,14.945,67.189,5.422c-13.381-7.633-32.915-6.5-45.264-.98C13.155,8.363,3.536,18.166,0,32.452Z" transform="translate(13.537 82.106)" fill="#3d5cff"/>
  <path id="Vector-7" data-name="Vector" d="M21.322,20.739a.733.733,0,0,1-.277-.055L13.492,17.63a.254.254,0,0,0-.141,0L7.126,20.011a3.089,3.089,0,0,1-1.116.209,3.137,3.137,0,0,1-2.9-1.973L.21,10.782A3.071,3.071,0,0,1,1.992,6.8l17.3-6.6a3.113,3.113,0,0,1,4.017,1.764l2.9,7.465a3.005,3.005,0,0,1-.058,2.351,3.1,3.1,0,0,1-1.724,1.627L20.72,14.83a.21.21,0,0,0-.111.107.178.178,0,0,0,0,.145l1.7,4.341a.906.906,0,0,1-.019.7.922.922,0,0,1-.518.486h-.014a.017.017,0,0,0-.013.007.019.019,0,0,1-.015.007A.828.828,0,0,1,21.322,20.739ZM11.568,7.688,8.754,7.8c-.019,0-.039.008-.058.011a.393.393,0,0,0-.112.031.515.515,0,0,0-.293.276.5.5,0,0,0,0,.4l1.967,5.056a.507.507,0,0,0,.479.337h.03l3.183-.112a.124.124,0,0,0,.07-.014.258.258,0,0,0,.141-.322L12.063,8.009A.537.537,0,0,0,11.568,7.688ZM15.284,5.3a.537.537,0,0,0-.335.119L12.8,7.211a.523.523,0,0,0-.142.561l2.122,5.448,0,.009a.266.266,0,0,0,.038.061.245.245,0,0,0,.186.083.237.237,0,0,0,.153-.055l2.447-2.031a.455.455,0,0,0,.128-.588l-1.967-5.07a.3.3,0,0,0-.06-.105l-.025-.034A.516.516,0,0,0,15.284,5.3Z" transform="translate(6.835 68.84)" fill="#fff"/>
  <g id="Group" transform="translate(71.666 54.79)">
    <path id="Vector-8" data-name="Vector" d="M0,1.933a1.137,1.137,0,0,0,1.061-.7A1.153,1.153,0,0,0,.835,0L.156,1.611A3.351,3.351,0,0,1,0,1.933Z" transform="translate(18.653 9.858)" fill="#fff"/>
    <path id="Vector-9" data-name="Vector" d="M2.724,1.28,2.681.327c-.028-.336-.24-.434-.481-.2L1.493.747.588.509C.276.439.121.621.248.915l.354.9-.523.84c-.17.28-.057.476.269.434l.948-.112.58.77c.2.252.41.2.5-.126L2.6,2.666l.891-.378c.3-.14.325-.378.042-.546Z" transform="translate(13.865 7.808)" fill="#fff"/>
    <path id="Vector-10" data-name="Vector" d="M.439,2.038A1.984,1.984,0,0,1,.567,1.66L1.26.007A1.126,1.126,0,0,0,.086.694,1.154,1.154,0,0,0,.439,2.038Z" transform="translate(11.608 7.077)" fill="#fff"/>
    <path id="Vector-11" data-name="Vector" d="M5.56,22.568a.815.815,0,0,1-.443-.134l-.226-.085a.772.772,0,0,1-.453-1.008L6.432,16.23,2.019,14.549A3.142,3.142,0,0,1,.208,10.5L3.5,2A3.186,3.186,0,0,1,7.592.208L26.759,7.519a3.124,3.124,0,0,1,1.81,4.033l-3.309,8.5a3.185,3.185,0,0,1-4.088,1.793l-7.031-2.689L5.866,22.5A.755.755,0,0,1,5.56,22.568ZM11.5,14.43a.464.464,0,0,0-.429.288.453.453,0,0,0,0,.354.464.464,0,0,0,.255.249l3.21,1.316a.475.475,0,0,0,.179.035.464.464,0,0,0,.429-.288.454.454,0,0,0,0-.353.463.463,0,0,0-.255-.249l-1.174-.49.651-1.554a3.609,3.609,0,0,0,3.494-.855,2.075,2.075,0,0,0,.627.1,2.1,2.1,0,0,0,1.934-1.273,2,2,0,0,0-.707-2.437l.3-.714a.661.661,0,0,0-.354-.869l-5.4-2.227a.679.679,0,0,0-.26-.052.664.664,0,0,0-.617.4l-.284.686A2.069,2.069,0,0,0,11.779,10.4a3.557,3.557,0,0,0,1.74,2.983l-.665,1.568-1.174-.49A.475.475,0,0,0,11.5,14.43Z" transform="translate(0 0)" fill="#fff"/>
  </g>
  <path id="Vector-12" data-name="Vector" d="M3.706,14.537l.594.154L8.317,0,0,12.324H4.06Z" transform="translate(20.833 103.365)" fill="#224bf4"/>
  <path id="Vector-13" data-name="Vector" d="M.012,17.73c.283-5.322,4.526-7.563,6.224-7.7a4.984,4.984,0,0,1,2.829.56S9.772,1.625,15.571.364s8.628.98,10.184,3.221,1.414,3.5,1.414,3.5,2.263-1.821,6.224-.28,2.829,5.882,2.829,5.882,3.112-.84,4.668,4.2S37.213,30.335,35.233,31.6,4.538,27.814,4.538,27.814-.271,23.052.012,17.73Z" transform="translate(29.82 36.173)" fill="#1f1f39"/>
  <path id="Vector-14" data-name="Vector" d="M2.382.435C-.447,1.7-.73,5.477,1.392,7.858s7.5,1.821,7.5,1.821L7.446,1.052A5.014,5.014,0,0,0,2.382.435Z" transform="translate(32.191 60.645)" fill="#f9acc0"/>
  <path id="Vector-15" data-name="Vector" d="M6.507.435C9.336,1.7,9.619,5.477,7.5,7.858S0,9.679,0,9.679L1.443,1.052A5.014,5.014,0,0,1,6.507.435Z" transform="translate(57.901 60.645)" fill="#f9acc0"/>
  <path id="Vector-16" data-name="Vector" d="M4.377,5.118A5.494,5.494,0,0,0,3.288,2.569,6.193,6.193,0,0,0,.162.412.209.209,0,0,1,.006.16.211.211,0,0,1,.261.006,6.554,6.554,0,0,1,3.641,2.331,5.584,5.584,0,0,1,4.816,5.1a.242.242,0,0,1-.226.224A.216.216,0,0,1,4.377,5.118Z" transform="translate(35.405 63.419)" fill="#1f1f39"/>
  <path id="Vector-17" data-name="Vector" d="M.115,4.735a.227.227,0,0,1-.1-.28,12.768,12.768,0,0,1,2.164-3A4.692,4.692,0,0,1,4.415,0a.209.209,0,0,1,.24.168.208.208,0,0,1-.17.238A4.565,4.565,0,0,0,2.478,1.752,12.569,12.569,0,0,0,.4,4.637a.2.2,0,0,1-.184.126A.264.264,0,0,1,.115,4.735Z" transform="translate(59.523 63.568)" fill="#1f1f39"/>
  <path id="Vector-18" data-name="Vector" d="M1.155,18.093A15.039,15.039,0,0,0,7.1,25.8a28.3,28.3,0,0,1-.424,6.022,13.891,13.891,0,0,1-1.132,3.5s.99,2.1,6.224,2.1c5.658,0,7.214-2.1,7.214-2.1a26.931,26.931,0,0,1-.99-4.061,37.855,37.855,0,0,1-.141-5.322s4.385-.56,6.082-6.722A30.794,30.794,0,0,0,24.777,7.59S16.431,8.85,13.6,5.489,7.944-1.234,3.842.447A6.134,6.134,0,0,0,.023,6.329S-.26,13.192,1.155,18.093Z" transform="translate(37.557 52.025)" fill="#f9d2dd"/>
  <path id="Vector-19" data-name="Vector" d="M1.525,1.849C.683,1.845,0,1.427,0,.915S.675-.008,1.517,0,3.043.417,3.045.928,2.367,1.852,1.525,1.849Z" transform="translate(42.448 57.961) rotate(-30.001)" fill="#1f1f39"/>
  <path id="Vector-20" data-name="Vector" d="M1.273,2.941A1.383,1.383,0,0,1,0,1.471,1.383,1.383,0,0,1,1.273,0,1.383,1.383,0,0,1,2.546,1.471,1.383,1.383,0,0,1,1.273,2.941Z" transform="translate(44.614 62.932)" fill="#1f1f39"/>
  <path id="Vector-21" data-name="Vector" d="M1.273,2.941A1.383,1.383,0,0,1,0,1.471,1.383,1.383,0,0,1,1.273,0,1.383,1.383,0,0,1,2.546,1.471,1.383,1.383,0,0,1,1.273,2.941Z" transform="translate(52.755 62.932)" fill="#1f1f39"/>
  <path id="Vector-22" data-name="Vector" d="M2.056,1.12A3.03,3.03,0,0,0,4.037,0,1.864,1.864,0,0,1,2.764,2.241C1.066,2.8-.348,1.12.076,0A2.209,2.209,0,0,0,2.056,1.12Z" transform="translate(48.044 67.912)" fill="#f95368"/>
  <path id="Vector-23" data-name="Vector" d="M.079,3.081c.424.84,1.556.42,1.556.42S.5,3.221.5,2.381A9.671,9.671,0,0,1,1.07,0S-.345,2.241.079,3.081Z" transform="translate(48.909 63.322)" fill="#1f1f39"/>
  <g id="Group-2" data-name="Group" transform="translate(37.847 59.836)">
    <path id="Vector-24" data-name="Vector" d="M5.446,10.784A5.425,5.425,0,0,1,0,5.392a5.446,5.446,0,0,1,10.892,0A5.425,5.425,0,0,1,5.446,10.784ZM5.446.42A5,5,0,0,0,.424,5.392a5.022,5.022,0,0,0,10.043,0A5,5,0,0,0,5.446.42Z" fill="#1f1f39"/>
    <path id="Vector-25" data-name="Vector" d="M5.446,10.784A5.425,5.425,0,0,1,0,5.392a5.446,5.446,0,0,1,10.892,0A5.425,5.425,0,0,1,5.446,10.784ZM5.446.42A5,5,0,0,0,.424,5.392a5.022,5.022,0,0,0,10.043,0A5,5,0,0,0,5.446.42Z" transform="translate(13.579)" fill="#1f1f39"/>
    <path id="Vector-26" data-name="Vector" d="M0,.2A7.735,7.735,0,0,1,1.782,0,3.827,3.827,0,0,1,3.253.21l-.17.378A3.734,3.734,0,0,0,1.8.42,6.4,6.4,0,0,0,.1.6Z" transform="translate(10.637 3.599)" fill="#1f1f39"/>
  </g>
  <path id="Vector-27" data-name="Vector" d="M.283,6.022c-.1.42-.184.8-.283,1.148.085-.028.17-.042.255-.07,6.111-1.6,9.406-3.669,11.16-5.266,0-.98.028-1.695.028-1.695s-1.7.98-5.8.84A12.8,12.8,0,0,1,.707,0,30.221,30.221,0,0,1,.283,6.022Z" transform="translate(43.792 77.337)" fill="#f9acc0"/>
  <g id="Group-3" data-name="Group" transform="translate(39.908 66.012)">
    <path id="Vector-28" data-name="Vector" d="M2.758,3.361C1.235,3.361,0,2.609,0,1.681S1.235,0,2.758,0,5.517.752,5.517,1.681,4.282,3.361,2.758,3.361Z" transform="translate(14.569)" fill="#f9acc0"/>
    <path id="Vector-29" data-name="Vector" d="M2.758,3.361C1.235,3.361,0,2.609,0,1.681S1.235,0,2.758,0,5.517.752,5.517,1.681,4.282,3.361,2.758,3.361Z" transform="translate(0 0)" fill="#f9acc0"/>
  </g>
  <path id="Vector-30" data-name="Vector" d="M5.8,18.207l4.724-.392L0,0Z" transform="translate(68.652 101.497)" fill="#224bf4"/>
  <path id="Vector-31" data-name="Vector" d="M.106.4A.2.2,0,0,1,.035.1a.209.209,0,0,1,.3-.07,8.962,8.962,0,0,0,4.13.952.216.216,0,0,1,.212.21.216.216,0,0,1-.212.21A9.339,9.339,0,0,1,.106.4Z" transform="translate(44.628 77.462)" fill="#1f1f39"/>
  <path id="Vector-32" data-name="Vector" d="M36.648,7.273c.792-.672.679-2.129.339-3.025A8.862,8.862,0,0,0,35.87,2.483,1.536,1.536,0,0,1,35.728.649c.509-.686,2.009-.8,3.183-.476a4.374,4.374,0,0,1,2.136,1.19,7.93,7.93,0,0,1,1.7,2.941,4.838,4.838,0,0,1,4.668,0,2.36,2.36,0,0,1,.99,2.1,3.388,3.388,0,0,1,2.263.98,2.331,2.331,0,0,1,.283,2.521,2.606,2.606,0,0,1,.481,3.109c-.622,1.092-2.942,3.767-7.5,6.106-6.818,3.5-21.062,11.9-30.893,12.913C6.689,32.678-2.1,30.494.451,18.869S3.987,4.584,3.987,4.584H18.839l-2.277,8.823S35.856,7.945,36.648,7.273Z" transform="translate(10.129 109.973)" fill="#f9d2dd"/>
  <path id="Vector-33" data-name="Vector" d="M.013,3.01A.213.213,0,0,1,.14,2.743L8.415.012a.217.217,0,0,1,.269.126A.213.213,0,0,1,8.556.4L.281,3.136a.129.129,0,0,1-.071.014A.213.213,0,0,1,.013,3.01Z" transform="translate(18.206 123.172)" fill="#1f1f39"/>
  <path id="Vector-34" data-name="Vector" d="M.029,2.774A.223.223,0,0,1,.1,2.479L4.131.029a.228.228,0,0,1,.3.07.223.223,0,0,1-.071.294L.326,2.844a.336.336,0,0,1-.113.028A.242.242,0,0,1,.029,2.774Z" transform="translate(47.229 116.167)" fill="#1f1f39"/>
  <path id="Vector-35" data-name="Vector" d="M.029,2.774A.223.223,0,0,1,.1,2.479L4.131.029a.228.228,0,0,1,.3.07.223.223,0,0,1-.071.294L.326,2.844a.336.336,0,0,1-.113.028A.242.242,0,0,1,.029,2.774Z" transform="translate(49.321 119.809)" fill="#1f1f39"/>
  <path id="Vector-36" data-name="Vector" d="M1.287.61A6.2,6.2,0,0,1,0,4.125C2.291,3.957,3.706,1.786,4.484.064A5.3,5.3,0,0,0,1.287.61Z" transform="translate(44.889 113.653)" fill="#f9acc0"/>
  <path id="Vector-37" data-name="Vector" d="M16.168,0H1.315S.919,1.05,0,4.734L15.772,1.555Z" transform="translate(12.787 114.558)" fill="#f9acc0"/>
  <path id="Vector-38" data-name="Vector" d="M.153,3.471A.264.264,0,0,1,.04,3.093L1.6.152A.269.269,0,0,1,1.978.039a.264.264,0,0,1,.113.378L.535,3.359A.317.317,0,0,1,.28,3.5.417.417,0,0,1,.153,3.471Z" transform="translate(49.449 108.438)" fill="#eaeaff"/>
  <g id="Group-4" data-name="Group" transform="translate(18.258 90.185)">
    <path id="Vector-39" data-name="Vector" d="M1.284,4.983.011.361a.28.28,0,0,1,.2-.35.283.283,0,0,1,.354.2L1.836,4.829a.28.28,0,0,1-.2.35.212.212,0,0,1-.085.014A.272.272,0,0,1,1.284,4.983Z" transform="translate(19.382 0.973)" fill="#eaeaff"/>
    <path id="Vector-40" data-name="Vector" d="M.175,4.879A.283.283,0,0,1,.02,4.515L1.717.173A.288.288,0,0,1,2.085.019.283.283,0,0,1,2.24.383L.543,4.725a.3.3,0,0,1-.269.168A.243.243,0,0,1,.175,4.879Z" transform="translate(26.601 8.695)" fill="#eaeaff"/>
    <path id="Vector-41" data-name="Vector" d="M2.011,4.19.03.408A.279.279,0,0,1,.158.03.285.285,0,0,1,.54.156L2.52,3.938a.279.279,0,0,1-.127.378.417.417,0,0,1-.127.028A.3.3,0,0,1,2.011,4.19Z" transform="translate(14.001 19.468)" fill="#eaeaff"/>
    <path id="Vector-42" data-name="Vector" d="M.085,2.577a.269.269,0,0,1,0-.392L2.207.084a.275.275,0,0,1,.4,0,.269.269,0,0,1,0,.392L.481,2.577a.281.281,0,0,1-.2.084A.281.281,0,0,1,.085,2.577Z" transform="translate(47.385 28.434)" fill="#eaeaff"/>
    <path id="Vector-43" data-name="Vector" d="M2.328,3.257.065.456A.27.27,0,0,1,.107.064.276.276,0,0,1,.5.106l2.263,2.8a.27.27,0,0,1-.042.392.207.207,0,0,1-.17.07A.3.3,0,0,1,2.328,3.257Z" transform="translate(46.246 39.489)" fill="#eaeaff"/>
    <path id="Vector-44" data-name="Vector" d="M.119,3.451a.285.285,0,0,1-.071-.392L2.17.118a.292.292,0,0,1,.4-.07A.285.285,0,0,1,2.637.44L.515,3.381a.273.273,0,0,1-.4.07Z" transform="translate(31.537 42.853)" fill="#eaeaff"/>
    <path id="Vector-45" data-name="Vector" d="M.187,4.471a.285.285,0,0,1-.17-.364L1.432.186A.289.289,0,0,1,1.8.018a.285.285,0,0,1,.17.364L.555,4.3a.29.29,0,0,1-.269.182A.243.243,0,0,1,.187,4.471Z" transform="translate(59.123 35.573)" fill="#eaeaff"/>
    <path id="Vector-46" data-name="Vector" d="M0,5.182V.28a.283.283,0,0,1,.566,0v4.9a.283.283,0,0,1-.566,0Z" transform="translate(49.083 9.107)" fill="#eaeaff"/>
    <path id="Vector-47" data-name="Vector" d="M.717,3.007.01.346A.27.27,0,0,1,.208.01a.273.273,0,0,1,.339.2l.707,2.661a.27.27,0,0,1-.2.336.129.129,0,0,1-.071.014A.272.272,0,0,1,.717,3.007Z" transform="translate(38.761 0.008)" fill="#eaeaff"/>
    <path id="Vector-48" data-name="Vector" d="M.187,3.211a.285.285,0,0,1-.17-.364L1.008.186A.289.289,0,0,1,1.376.018a.285.285,0,0,1,.17.364L.555,3.043a.29.29,0,0,1-.269.182A.243.243,0,0,1,.187,3.211Z" transform="translate(57.567 0)" fill="#eaeaff"/>
    <path id="Vector-49" data-name="Vector" d="M.141,3.375,0,.294A.292.292,0,0,1,.269,0a.293.293,0,0,1,.3.266L.707,3.347a.294.294,0,0,1-.283.294h0A.28.28,0,0,1,.141,3.375Z" transform="translate(0 9.947)" fill="#eaeaff"/>
  </g>
  <path id="Vector-50" data-name="Vector" d="M4.291,1.265.231.551A.274.274,0,0,1,0,.229.276.276,0,0,1,.33,0L4.39.719a.275.275,0,0,1-.042.546Z" transform="translate(78.721 103.544)" fill="#eaeaff"/>
  <path id="Vector-51" data-name="Vector" d="M0,1.7a.283.283,0,0,1,.255-.308L16.042,0a.285.285,0,0,1,.311.252A.283.283,0,0,1,16.1.561L.312,1.934a.05.05,0,0,1-.028.014A.288.288,0,0,1,0,1.7Z" transform="translate(72.178 114.444)" fill="#eaeaff"/>
  <path id="Vector-52" data-name="Vector" d="M0,.8A.292.292,0,0,1,.269.5L15.729,0a.293.293,0,0,1,.3.266.292.292,0,0,1-.269.294l-15.475.5A.28.28,0,0,1,0,.8Z" transform="translate(13.791 112.745)" fill="#eaeaff"/>
  <path id="Vector-53" data-name="Vector" d="M.154,13.989a.191.191,0,0,1-.141-.252L3.832.152a.2.2,0,0,1,.255-.14.191.191,0,0,1,.141.252L.409,13.849A.2.2,0,0,1,.21,14,.086.086,0,0,1,.154,13.989Z" transform="translate(25.044 101.718)" fill="#1f1f39"/>
  <path id="Vector-54" data-name="Vector" d="M5.665,18.48.007.273A.221.221,0,0,1,.149.007a.225.225,0,0,1,.269.14L6.075,18.354a.221.221,0,0,1-.141.266.155.155,0,0,1-.071.014A.208.208,0,0,1,5.665,18.48Z" transform="translate(68.773 101.207)" fill="#1f1f39"/>
  <g id="Group_133" data-name="Group 133" transform="translate(90.035 0)">
    <rect id="Rectangle_79" data-name="Rectangle 79" width="37.174" height="44.099" rx="5" fill="#fff"/>
    <rect id="Rectangle_80" data-name="Rectangle 80" width="20.56" height="2.244" transform="translate(8.307 31.086)" fill="#63926c"/>
    <rect id="Rectangle_81" data-name="Rectangle 81" width="13.423" height="2.244" transform="translate(11.876 35.881)" fill="#8fac94"/>
    <g id="Group_135" data-name="Group 135" transform="translate(9.223 6.926)">
      <circle id="Ellipse_74" data-name="Ellipse 74" cx="9.364" cy="9.364" r="9.364" transform="translate(0 0)" fill="#c2e3df"/>
      <path id="Vector_8" data-name="Vector 8" d="M3.265,4.17,7.465,0,8.676,1.261,3.265,6.6,0,3.283,1.153,2.112Z" transform="translate(5.026 6.223)" fill="#63926c"/>
    </g>
  </g>
</svg>
