<svg xmlns="http://www.w3.org/2000/svg" width="77.552" height="72.197" viewBox="0 0 77.552 72.197">
  <g id="Group_8218" data-name="Group 8218" transform="translate(-234.448 -20.835)">
    <circle id="Ellipse_76" data-name="Ellipse 76" cx="35.5" cy="35.5" r="35.5" transform="translate(237.429 22.032)" fill="#f8f2ff" opacity="0.8"/>
    <g id="Group_136" data-name="Group 136" transform="translate(248.519 20.835)">
      <path id="Vector" d="M0,0,2.438,6.432A25.693,25.693,0,0,0,8.3,2.653C7.869,1.412,7.5.473,7.5.473Z" transform="translate(34.119 41.76)" fill="#da5742"/>
      <path id="Vector-2" data-name="Vector" d="M5.885,6.726,8.431,0,.934.473C.926.482.479,1.616,0,3.036A25.513,25.513,0,0,0,5.885,6.726Z" transform="translate(9.083 41.588)" fill="#da5742"/>
      <path id="Vector-3" data-name="Vector" d="M0,0,.843,2.188l7.439.457C7.877,1.494,7.5.473,7.5.473Z" transform="translate(34.119 41.76)" fill="#c43d28"/>
      <path id="Vector-4" data-name="Vector" d="M8.4,0,7.554,2.188,0,2.914C.405,1.771.9.473.9.473Z" transform="translate(9.191 41.352)" fill="#c43d28"/>
      <path id="Vector-5" data-name="Vector" d="M8.183,1.65C4.91,3.119,1.322,7.658,0,12.98H5.852l-.967,4.832a25.8,25.8,0,0,0,11.646,2.759,25.728,25.728,0,0,0,11.687-2.783L27.193,13.6l5.918-.522c-.008,0-1.372-7.51-7.612-11.06C20.5-.823,12.795-.4,8.183,1.65Z" transform="translate(9.092 30.037)" fill="#3d5cff"/>
      <path id="Vector-6" data-name="Vector" d="M.645,7.1C.5,9.461.372,11.812.232,14.171.157,15.485.075,16.8,0,18.106c-.008.155.24.155.248,0,.141-2.351.281-4.693.413-7.044s.273-4.7.413-7.052c.074-1.3.157-2.6.231-3.894.008-.155-.24-.155-.248.008Q.847,3.613.645,7.1Z" transform="translate(17.555 31.115)" fill="#cdecfe" opacity="0.467"/>
      <path id="Vector-7" data-name="Vector" d="M.231,7.786c-.05,2.555-.1,5.118-.149,7.673C.058,16.9.025,18.34,0,19.777a.124.124,0,0,0,.248,0Q.322,15.932.4,12.088L.554,4.423C.579,2.995.612,1.558.636.13A.124.124,0,1,0,.388.121Q.314,3.954.231,7.786Z" transform="translate(21.242 30.349)" fill="#cdecfe" opacity="0.467"/>
      <path id="Vector-8" data-name="Vector" d="M.132,7.977c.041,2.62.091,5.24.132,7.861.025,1.477.05,2.963.074,4.44a.124.124,0,0,0,.248,0C.546,17.658.5,15.037.455,12.417S.364,7.177.322,4.557C.3,3.079.273,1.594.248.116A.124.124,0,0,0,0,.116C.041,2.736.091,5.357.132,7.977Z" transform="translate(25.201 30.134)" fill="#cdecfe" opacity="0.467"/>
      <path id="Vector-9" data-name="Vector" d="M.207,3.821C.281,5.111.372,6.4.455,7.69.546,9,.637,10.294.744,11.6c.1,1.29.207,2.588.322,3.877q.161,1.861.347,3.722c.017.147.033.294.041.441s.264.155.248,0c-.124-1.233-.24-2.465-.347-3.689-.116-1.29-.223-2.579-.322-3.861-.1-1.306-.2-2.6-.289-3.91S.571,5.592.488,4.295C.413,3.054.339,1.8.273.564L.248.123C.24-.04-.008-.04,0,.115.066,1.348.132,2.58.207,3.821Z" transform="translate(28.846 30.127)" fill="#cdecfe" opacity="0.467"/>
      <path id="Vector-10" data-name="Vector" d="M1.119,6.88q.57,3.416,1.141,6.84c.207,1.241.413,2.49.62,3.73.025.155.264.09.24-.065C2.747,15.14,2.375,12.9,2,10.659Q1.433,7.243.863,3.819C.656,2.578.449,1.329.243.089.21-.066-.03,0,0,.154.375,2.4.747,4.635,1.119,6.88Z" transform="translate(32.157 31.019)" fill="#cdecfe" opacity="0.467"/>
      <path id="Vector-11" data-name="Vector" d="M1.35,4.007C1.053,5.3.764,6.595.483,7.884.317,8.627.16,9.37,0,10.121c-.033.155.207.22.24.065.273-1.314.562-2.62.851-3.934.289-1.29.587-2.588.876-3.877.174-.743.339-1.486.5-2.228A.119.119,0,0,0,2.243.089Z" transform="translate(13.221 32.773)" fill="#cdecfe" opacity="0.467"/>
      <path id="Vector-12" data-name="Vector" d="M1.313,4.113c.422,1.322.851,2.653,1.281,3.975.24.743.488,1.486.744,2.22.05.147.289.082.24-.065C3.131,8.929,2.7,7.606,2.271,6.284S1.42,3.631.99,2.309C.751,1.566.5.823.246.089.2-.066-.043,0,.007.154.453,1.468.883,2.79,1.313,4.113Z" transform="translate(35.815 32.937)" fill="#cdecfe" opacity="0.467"/>
      <path id="Vector-13" data-name="Vector" d="M3.48,0,0,5.477l1.975-.008Z" transform="translate(13.059 37.54)" fill="#224bf4"/>
      <path id="Vector-14" data-name="Vector" d="M2.166,6.783l1.761-.147L0,0Z" transform="translate(34.119 36.854)" fill="#224bf4"/>
      <path id="Vector-15" data-name="Vector" d="M.059,6.213A.084.084,0,0,1,0,6.115L1.655.059A.085.085,0,0,1,1.754,0a.084.084,0,0,1,.058.1L.159,6.156a.079.079,0,0,1-.074.057Z" transform="translate(14.959 36.885)" fill="#1f1f39"/>
      <path id="Vector-16" data-name="Vector" d="M2.121,6.886.005.1a.076.076,0,0,1,.05-.1.077.077,0,0,1,.1.049L2.278,6.837a.076.076,0,0,1-.05.1c-.017,0-.025.008-.033.008A.079.079,0,0,1,2.121,6.886Z" transform="translate(34.007 36.751)" fill="#1f1f39"/>
      <path id="Vector-17" data-name="Vector" d="M25.622,50.608A25.465,25.465,0,0,1,0,25.3,25.465,25.465,0,0,1,25.622,0,25.465,25.465,0,0,1,51.245,25.3,25.465,25.465,0,0,1,25.622,50.608Z" fill="none"/>
      <g id="Group" transform="translate(12.842 5.632)">
        <path id="Vector-18" data-name="Vector" d="M8.879,22.039c-.744-.163-.827-.571-.827-.571s-.248.49-1.736.327a2.491,2.491,0,0,1-1.984-1.551s-1.818-.327-2.149-1.306a3.1,3.1,0,0,1-.248-1.388,3.257,3.257,0,0,1-1.157-2.2c.083-1.143.5-1.388.5-1.388s-.661-.571-.5-1.061a.811.811,0,0,1,.5-.571S-.46,10.611.118,8.734,2.1,6.857,2.1,6.857A.87.87,0,0,1,2.6,5.8c.744-.408,1.074-.327,1.074-.327s-.165-2.041.909-2.53a3.181,3.181,0,0,1,1.984-.245s-.083-1.143.661-1.224A1.14,1.14,0,0,1,8.3,1.877s0-.327.661-.408.744.163.744.163A1.843,1.843,0,0,1,11.607,0a2.6,2.6,0,0,1,2.314.98A1.336,1.336,0,0,1,15.326.408a1.109,1.109,0,0,1,.992,1.061,2.519,2.519,0,0,1,2.562-.408c1.736.49,2.232,3.51,2.232,3.51a1.684,1.684,0,0,1,1.074.082c.5.245.413,1.143.413,1.143s1.57.082,1.9,1.388,0,1.8,0,1.8a3.665,3.665,0,0,1,.992,3.265,4.594,4.594,0,0,1-1.24,2.612,2.732,2.732,0,0,1,0,1.714,1.159,1.159,0,0,1-.992.735s.248,1.143-.331,1.551a1.457,1.457,0,0,1-1.157.245,4.206,4.206,0,0,1-2.645,2.612A6.577,6.577,0,0,1,15,21.468l-4.877.735A6.4,6.4,0,0,1,8.879,22.039Z" transform="translate(0)" fill="#f99a3d"/>
        <path id="Vector-19" data-name="Vector" d="M2.12,4.2a2.9,2.9,0,0,1,.645.351,7.608,7.608,0,0,1,1.67-3.7A2.692,2.692,0,0,1,7.823.449c1.157.9,1.653,2.367,2.4,1.959s1.57-1.224,2.4-.571c.62.49.727,2,.744,2.718a3.276,3.276,0,0,1,.645-.351,1.55,1.55,0,0,1,2.116,1.7,1.958,1.958,0,0,1-.777,1.73,5.113,5.113,0,0,1-2.389.327,5.7,5.7,0,0,1-.512,1.388,7.539,7.539,0,0,1-1.736,1.959V13.24l.182,2.637a4.358,4.358,0,0,1-.521.212,3.962,3.962,0,0,1-.736.212,7.177,7.177,0,0,1-1.562.171A6.293,6.293,0,0,1,6.509,16.3a3.412,3.412,0,0,1-.736-.212,4.358,4.358,0,0,1-.521-.212l.182-2.637V11.305A7.539,7.539,0,0,1,3.7,9.346,2.915,2.915,0,0,1,3.26,7.975,4.593,4.593,0,0,1,.789,7.632,1.945,1.945,0,0,1,0,5.9,1.549,1.549,0,0,1,2.12,4.2Z" transform="translate(4.296 10.162)" fill="#da5742"/>
        <g id="Group-2" data-name="Group" transform="translate(4.288 14.249)">
          <path id="Vector-20" data-name="Vector" d="M.066,1.951,0,2.963a10.435,10.435,0,0,0,2.7-.588A11.041,11.041,0,0,0,5.348.971V.008C3.86.906.719.58.066,0Z" transform="translate(5.36 7.21)" fill="#c43d28"/>
          <path id="Vector-21" data-name="Vector" d="M.029.162A.1.1,0,0,1,.021.032.093.093,0,0,1,.153.024,5.4,5.4,0,0,0,3.129.562a.086.086,0,1,1,.008.171,1.9,1.9,0,0,1-.372.024A5.008,5.008,0,0,1,.029.162Z" transform="translate(5.339 7.105)" fill="#1f1f39"/>
          <path id="Vector-22" data-name="Vector" d="M.554.4a10.458,10.458,0,0,1-.19,2.081C.306,2.851.1,3.545,0,3.9a4.8,4.8,0,0,0,2.447-.359,1.978,1.978,0,0,0,.777-1.73A1.552,1.552,0,0,0,1.108.117,3.825,3.825,0,0,0,.554.4Z" transform="translate(12.906 0)" fill="#c43d28"/>
          <path id="Vector-23" data-name="Vector" d="M.207.424C.215.441.231.465.24.482.157.318.074.155,0,0,.058.131.124.269.207.424Z" transform="translate(3.484 4.835)" fill="#c43d28"/>
          <path id="Vector-24" data-name="Vector" d="M2.12.117A1.55,1.55,0,0,0,0,1.814a1.958,1.958,0,0,0,.777,1.73A4.452,4.452,0,0,0,3.186,3.9a35.067,35.067,0,0,1-.529-3.5A3.234,3.234,0,0,0,2.12.117Z" transform="translate(0)" fill="#c43d28"/>
        </g>
        <path id="Vector-25" data-name="Vector" d="M1.878,2.181A2.277,2.277,0,0,0,1.407,1.1,2.711,2.711,0,0,0,.068.173.1.1,0,0,1,0,.067.1.1,0,0,1,.109,0,2.7,2.7,0,0,1,1.555,1a2.348,2.348,0,0,1,.5,1.184.08.08,0,0,1-.083.09A.091.091,0,0,1,1.878,2.181Z" transform="translate(5.266 15.23)" fill="#1f1f39"/>
        <path id="Vector-26" data-name="Vector" d="M0,2.184A2.424,2.424,0,0,1,.5,1,2.814,2.814,0,0,1,1.942,0,.083.083,0,0,1,2.05.07a.082.082,0,0,1-.066.106A2.559,2.559,0,0,0,.645,1.1,2.277,2.277,0,0,0,.174,2.184a.08.08,0,0,1-.083.09A.091.091,0,0,1,0,2.184Z" transform="translate(17.5 15.227)" fill="#1f1f39"/>
        <path id="Vector-27" data-name="Vector" d="M0,.653S.066,0,.546,0s.546.653.546.653" transform="translate(9.706 14.04)" fill="#fff"/>
        <path id="Vector-28" data-name="Vector" d="M0,.653S.066,0,.546,0s.546.653.546.653" transform="translate(13.896 14.04)" fill="#fff"/>
        <path id="Vector-29" data-name="Vector" d="M.252.433A1.806,1.806,0,0,0,.128.865a.245.245,0,0,0,.033.18c0,.008.008.008.008.016l.017.016A.181.181,0,0,0,.227,1.1a.175.175,0,0,0,.091.033.77.77,0,0,0,.43-.1.585.585,0,0,1-.19.155A.456.456,0,0,1,.3,1.249a.357.357,0,0,1-.132-.041.148.148,0,0,1-.058-.041L.086,1.143A.113.113,0,0,1,.062,1.11.368.368,0,0,1,0,.841.9.9,0,0,1,.07.6C.095.522.136.449.169.375A2.084,2.084,0,0,1,.434,0C.367.147.31.294.252.433Z" transform="translate(12.099 15.427)" fill="#1f1f39"/>
        <path id="Vector-30" data-name="Vector" d="M0,.261A1.115,1.115,0,0,0,1.19.914C1.9.816,1.984,0,1.984,0" transform="translate(11.772 17.55)" fill="#fff"/>
        <path id="Vector-31" data-name="Vector" d="M.537,1.306A.6.6,0,0,1,0,.653.6.6,0,0,1,.537,0a.6.6,0,0,1,.537.653A.6.6,0,0,1,.537,1.306Z" transform="translate(9.788 15.182)" fill="#1f1f39"/>
        <path id="Vector-32" data-name="Vector" d="M.537,1.306A.6.6,0,0,1,0,.653.6.6,0,0,1,.537,0a.6.6,0,0,1,.537.653A.6.6,0,0,1,.537,1.306Z" transform="translate(13.921 15.182)" fill="#1f1f39"/>
        <path id="Vector-33" data-name="Vector" d="M.8,2.809C.358,2.809,0,2.18,0,1.4S.356,0,.8,0s.8.63.8,1.406S1.242,2.81.8,2.809Z" transform="translate(14.369 17.88) rotate(-85.11)" fill="#c43d28"/>
        <path id="Vector-34" data-name="Vector" d="M.8,2.809C.358,2.809,0,2.18,0,1.4S.356,0,.8,0s.8.63.8,1.406S1.242,2.81.8,2.809Z" transform="matrix(0.085, -0.996, 0.996, 0.085, 7.674, 17.881)" fill="#c43d28"/>
      </g>
    </g>
    <g id="Avatar_03" data-name="Avatar 03" transform="translate(234.448 47.822)">
      <path id="Vector-35" data-name="Vector" d="M10.761.538C7.985,1.96,6.847,5.931,5.455,8.055a10.084,10.084,0,0,1-3.03,3.424A4.806,4.806,0,0,1,0,12.259s2.4,5.965,11.645,7.013,14.2-2.046,16.076-3.312a10,10,0,0,0,2.924-3.277s-4.352-.954-5.586-4.916-2.977-6.762-5.674-7.2a6.02,6.02,0,0,0-4.028.416A3.886,3.886,0,0,0,10.761.538Z" transform="translate(2.46 0)" fill="#1f1f39"/>
      <path id="Vector-36" data-name="Vector" d="M0,0,2.583,6.831A27.211,27.211,0,0,0,8.791,2.818C8.336,1.5,7.942.5,7.942.5Z" transform="translate(26.522 32.268)" fill="#f9d2dd"/>
      <path id="Vector-37" data-name="Vector" d="M6.234,7.144,8.931,0,.989.5C.981.511.508,1.717,0,3.225A27.017,27.017,0,0,0,6.234,7.144Z" transform="translate(0 32.086)" fill="#f9d2dd"/>
      <path id="Vector-38" data-name="Vector" d="M0,0,.893,2.323l7.88.485C8.344,1.586,7.942.5,7.942.5Z" transform="translate(26.522 32.268)" fill="#f9acc0"/>
      <path id="Vector-39" data-name="Vector" d="M8.9,0,8,2.323,0,3.095C.429,1.881.954.5.954.5Z" transform="translate(0.114 31.835)" fill="#f9acc0"/>
      <path id="Vector-40" data-name="Vector" d="M8.677,1.751C5.21,3.3,1.4,8.123,0,13.776H6.2L5.175,18.908A27.238,27.238,0,0,0,17.5,21.838a27.3,27.3,0,0,0,12.381-2.948L28.8,14.443l6.269-.555c0,.009-1.445-7.967-8.047-11.738C21.732-.876,13.563-.425,8.677,1.751Z" transform="translate(0.009 19.819)" fill="#3d5cff"/>
      <path id="Vector-41" data-name="Vector" d="M3.686,0,0,5.817l2.093-.009Z" transform="translate(4.212 27.786)" fill="#224bf4"/>
      <path id="Vector-42" data-name="Vector" d="M2.294,7.2l1.865-.156L0,0Z" transform="translate(26.522 27.058)" fill="#224bf4"/>
      <path id="Vector-43" data-name="Vector" d="M.063,6.6A.089.089,0,0,1,0,6.5L1.753.062A.09.09,0,0,1,1.858,0a.089.089,0,0,1,.061.1L.168,6.538A.084.084,0,0,1,.089,6.6Z" transform="translate(6.224 27.091)" fill="#1f1f39"/>
      <path id="Vector-44" data-name="Vector" d="M2.247,7.314.005.109a.081.081,0,0,1,.053-.1A.082.082,0,0,1,.163.057L2.4,7.262a.081.081,0,0,1-.053.1c-.009,0-.017.009-.026.009A.084.084,0,0,1,2.247,7.314Z" transform="translate(26.403 26.948)" fill="#1f1f39"/>
      <g id="Group-3" data-name="Group" transform="translate(9.4 5.939)">
        <path id="Vector-45" data-name="Vector" d="M14.837,2.956a3.071,3.071,0,0,0-.683.373,14.16,14.16,0,0,0-.079-1.43l-1.734-.017L12.236.85l-.21,1.032L9.373,1.855,9.259.85l-.184,1L4.7,1.8,4.522,0,4.277,1.8,2.946,1.795s-.017.72-.017,1.526a3.469,3.469,0,0,0-.683-.373A1.643,1.643,0,0,0,0,4.751,2.082,2.082,0,0,0,.827,6.589a4.416,4.416,0,0,0,2.53.364,4.229,4.229,0,0,0,.552,1.456A8,8,0,0,0,5.748,10.49v2.055l-.193,2.8a4.61,4.61,0,0,0,.552.225,4.189,4.189,0,0,0,.779.225,7.584,7.584,0,0,0,1.655.182A6.65,6.65,0,0,0,10.2,15.8a3.608,3.608,0,0,0,.779-.225,4.61,4.61,0,0,0,.552-.225l-.193-2.8V10.5a8,8,0,0,0,1.839-2.081,5.653,5.653,0,0,0,.543-1.474,5.4,5.4,0,0,0,2.53-.347,2.068,2.068,0,0,0,.832-1.838A1.642,1.642,0,0,0,14.837,2.956Z" transform="translate(0)" fill="#f9d2dd"/>
        <path id="Vector-46" data-name="Vector" d="M2.245.124A1.643,1.643,0,0,0,0,1.927,2.082,2.082,0,0,0,.827,3.765a4.5,4.5,0,0,0,2.513.373S3.165,3.167,3.034,2.2A12.337,12.337,0,0,1,2.928.5,3.468,3.468,0,0,0,2.245.124Z" transform="translate(0.009 2.832)" fill="#f9acc0"/>
        <path id="Vector-47" data-name="Vector" d="M.42.5A15.977,15.977,0,0,1,.341,2.118C.228,3.106,0,4.112,0,4.112a5.394,5.394,0,0,0,2.522-.347,2.1,2.1,0,0,0,.823-1.838A1.645,1.645,0,0,0,1.1.124,3.07,3.07,0,0,0,.42.5Z" transform="translate(13.742 2.832)" fill="#f9acc0"/>
        <path id="Vector-48" data-name="Vector" d="M2.217,2.637a2.816,2.816,0,0,0-.552-1.318A3.054,3.054,0,0,0,.08.21.113.113,0,0,1,0,.08.115.115,0,0,1,.133,0,3.236,3.236,0,0,1,1.84,1.207a2.872,2.872,0,0,1,.587,1.43.105.105,0,0,1-.21,0Z" transform="translate(0.633 3.553)" fill="#1f1f39"/>
        <path id="Vector-49" data-name="Vector" d="M.063,2.455A.111.111,0,0,1,.01,2.307,6.851,6.851,0,0,1,1.1.756,2.371,2.371,0,0,1,2.234,0a.1.1,0,0,1,.123.087.1.1,0,0,1-.088.121A2.261,2.261,0,0,0,1.254.9,6.547,6.547,0,0,0,.2,2.394a.112.112,0,0,1-.1.069A.066.066,0,0,1,.063,2.455Z" transform="translate(14.213 3.614)" fill="#1f1f39"/>
        <g id="Group-4" data-name="Group" transform="translate(3.445 5.358)">
          <path id="Vector-50" data-name="Vector" d="M1.392,1.734C.623,1.734,0,1.346,0,.867S.623,0,1.392,0,2.784.388,2.784.867,2.161,1.734,1.392,1.734Z" transform="translate(7.364)" fill="#f9acc0"/>
          <path id="Vector-51" data-name="Vector" d="M1.392,1.734C.623,1.734,0,1.346,0,.867S.623,0,1.392,0,2.784.388,2.784.867,2.161,1.734,1.392,1.734Z" fill="#f9acc0"/>
        </g>
        <path id="Vector-52" data-name="Vector" d="M1.147.295A4.094,4.094,0,0,1,.088,0V2L0,3.251a2.692,2.692,0,0,0,.788-.182A16,16,0,0,0,5,.208,21.982,21.982,0,0,1,1.147.295Z" transform="translate(5.66 10.551)" fill="#f9acc0"/>
        <path id="Vector-53" data-name="Vector" d="M.263.126A.733.733,0,0,1,.779,0a.973.973,0,0,1,.5.182A.544.544,0,0,1,1.5.646.673.673,0,0,0,1.2.308,1.219,1.219,0,0,0,.771.187.893.893,0,0,0,.342.248.9.9,0,0,0,0,.56.622.622,0,0,1,.263.126Z" transform="translate(4.864 2.527)" fill="#1f1f39"/>
        <path id="Vector-54" data-name="Vector" d="M.333.093A.765.765,0,0,1,.849.015.68.68,0,0,1,1.1.1a.646.646,0,0,1,.2.173A.741.741,0,0,1,1.48.743,1.193,1.193,0,0,0,1.2.379.548.548,0,0,0,1.024.266C.989.258.963.24.928.232L.823.206A.9.9,0,0,0,.394.232.84.84,0,0,0,0,.466.663.663,0,0,1,.333.093Z" transform="translate(10.66 2.681)" fill="#1f1f39"/>
        <path id="Vector-55" data-name="Vector" d="M.385.624a2.4,2.4,0,0,0-.193.633.933.933,0,0,0-.009.156A.738.738,0,0,0,.21,1.56a.384.384,0,0,0,.158.225.755.755,0,0,0,.3.1,1.505,1.505,0,0,0,.341.017.934.934,0,0,1-.35.069A.8.8,0,0,1,.289,1.9a.517.517,0,0,1-.254-.3A.731.731,0,0,1,0,1.4a1.391,1.391,0,0,1,.009-.191A1.978,1.978,0,0,1,.254.546,2.716,2.716,0,0,1,.665,0C.569.208.473.416.385.624Z" transform="translate(8.191 4.127)" fill="#1f1f39"/>
        <path id="Vector-56" data-name="Vector" d="M.746,1.225A.691.691,0,0,1,0,.611.687.687,0,0,1,.744,0a.691.691,0,0,1,.746.614A.687.687,0,0,1,.746,1.225Z" transform="matrix(0.12, -0.993, 0.993, 0.12, 5.062, 5.363)" fill="#1f1f39"/>
        <path id="Vector-57" data-name="Vector" d="M.746,1.225A.691.691,0,0,1,0,.611.687.687,0,0,1,.744,0a.691.691,0,0,1,.746.614A.687.687,0,0,1,.746,1.225Z" transform="matrix(0.12, -0.993, 0.993, 0.12, 10.673, 5.478)" fill="#1f1f39"/>
        <path id="Vector-58" data-name="Vector" d="M.594.087H1.4c.166,0,.359,0,.622.009a.71.71,0,0,1-.114.347.99.99,0,0,1-.236.269A1.115,1.115,0,0,1,.98.954,1.164,1.164,0,0,1,.594.884a1,1,0,0,1-.333-.2A.879.879,0,0,1,.043.373.668.668,0,0,1,.017,0,3.117,3.117,0,0,0,.594.087Z" transform="translate(7.763 6.771)" fill="#da5742"/>
      </g>
      <path id="Vector-59" data-name="Vector" d="M.031.172A.1.1,0,0,1,.022.034.1.1,0,0,1,.162.025,5.713,5.713,0,0,0,3.315.6a.091.091,0,1,1,.009.182,2.008,2.008,0,0,1-.394.026A5.3,5.3,0,0,1,.031.172Z" transform="translate(14.705 16.231)" fill="#1f1f39"/>
      <path id="Vector-60" data-name="Vector" d="M1.691,4.994A2.9,2.9,0,0,1,.045,2.333,8.974,8.974,0,0,1,.089.148.184.184,0,0,1,.29,0,.182.182,0,0,1,.439.2,8.709,8.709,0,0,0,.4,2.3,2.6,2.6,0,0,0,1.831,4.674c1.173.5,3.047.052,4.562-1.1a.172.172,0,0,1,.245.035A.169.169,0,0,1,6.6,3.85,6.182,6.182,0,0,1,2.952,5.228,3.2,3.2,0,0,1,1.691,4.994Z" transform="translate(23.167 20.356)" fill="#eaeaff" opacity="0.55"/>
      <path id="Vector-61" data-name="Vector" d="M7.663,9.166l-.21-.1C3.985,7.476.711,5.967.1,2.257A6.369,6.369,0,0,1,.08.142.171.171,0,0,1,.282,0a.169.169,0,0,1,.14.2,5.944,5.944,0,0,0,.026,2c.587,3.528,3.774,5,7.162,6.554l.21.1a.185.185,0,0,1,.088.234.274.274,0,0,1-.175.1A.166.166,0,0,1,7.663,9.166Z" transform="translate(26.013 21.394)" fill="#eaeaff" opacity="0.55"/>
      <path id="Vector-62" data-name="Vector" d="M26.049,16.661h0l-.331-.1a4.419,4.419,0,0,0-.709-3.8,9.47,9.47,0,0,0-5.017-3.26A11.474,11.474,0,0,0,16.5,8.929a8.48,8.48,0,0,0-2.353.318,5.754,5.754,0,0,0-1.813.876c.631.061,1.3.107,1.89.147,3.4.243,6.619.473,7.383,2.74a2.183,2.183,0,0,1-.6,2.462,4.882,4.882,0,0,1-3.135,1h-.148a10.814,10.814,0,0,1-4.317-.99,4.863,4.863,0,0,1-2.355-1.9,2.445,2.445,0,0,1-.175-2.185,3.191,3.191,0,0,1,.648-1.014C9.881,10.182,7.85,9.8,6.707,8.6a3.328,3.328,0,0,1-.841-2.9,22.887,22.887,0,0,1-2.294-.173A8.973,8.973,0,0,1,0,4.393l.176-.3A8.511,8.511,0,0,0,3.607,5.183c.776.1,1.557.155,2.32.173A7.235,7.235,0,0,1,7.766,2.087,6.79,6.79,0,0,1,10.752.163,4.018,4.018,0,0,1,11.856,0a3.069,3.069,0,0,1,2,.717,1.5,1.5,0,0,1,.428,1.855A5.42,5.42,0,0,1,10.9,5.026a14.833,14.833,0,0,1-4.649.685H6.225a3.008,3.008,0,0,0,.727,2.653c1.118,1.163,3.2,1.528,4.885,1.716A7.192,7.192,0,0,1,16.505,8.6a11.867,11.867,0,0,1,3.6.587,9.894,9.894,0,0,1,5.2,3.39,4.805,4.805,0,0,1,.745,4.083Zm-14.1-6.225h0a2.973,2.973,0,0,0-.762,1.084c-.534,1.378.347,2.743,2.356,3.65a10.777,10.777,0,0,0,4.247.962,4.391,4.391,0,0,0,2.967-.91,1.841,1.841,0,0,0,.508-2.1c-.693-2.051-3.793-2.272-7.075-2.5-.769-.045-1.523-.106-2.241-.183ZM11.785.362A5.279,5.279,0,0,0,8,2.33,6.937,6.937,0,0,0,6.278,5.364,14.149,14.149,0,0,0,10.769,4.7a5.215,5.215,0,0,0,3.179-2.262A1.141,1.141,0,0,0,13.615.986,2.829,2.829,0,0,0,11.785.362Z" transform="translate(3.003 22.422)" fill="#eaeaff" opacity="0.55"/>
    </g>
    <g id="Group_137" data-name="Group 137" transform="translate(278.666 46.139)">
      <path id="Vector-63" data-name="Vector" d="M1.852.512A1.663,1.663,0,0,0,1.067.251,1.527,1.527,0,0,0,.19.382.133.133,0,0,1,.017.341.118.118,0,0,1,.058.178,1.768,1.768,0,0,1,1.091.015a1.867,1.867,0,0,1,.917.318A.125.125,0,0,1,2.025.5a.133.133,0,0,1-.091.033A.161.161,0,0,1,1.852.512Z" transform="translate(18.572 10.27)" fill="#1f1f39"/>
      <path id="Vector-64" data-name="Vector" d="M.026.5A.125.125,0,0,1,.043.333,1.82,1.82,0,0,1,.96.015,1.768,1.768,0,0,1,1.994.178a.126.126,0,0,1,.041.171A.129.129,0,0,1,1.861.39,1.55,1.55,0,0,0,.985.259,1.663,1.663,0,0,0,.2.521.134.134,0,0,1,.126.545.153.153,0,0,1,.026.5Z" transform="translate(13.884 10.262)" fill="#1f1f39"/>
      <path id="Vector-65" data-name="Vector" d="M0,0,2.438,6.432A25.693,25.693,0,0,0,8.3,2.653C7.869,1.412,7.5.473,7.5.473Z" transform="translate(25.036 34.577)" fill="#f9d2dd"/>
      <path id="Vector-66" data-name="Vector" d="M5.885,6.726,8.431,0,.934.473C.926.482.479,1.616,0,3.036A25.513,25.513,0,0,0,5.885,6.726Z" transform="translate(0 34.405)" fill="#f9d2dd"/>
      <path id="Vector-67" data-name="Vector" d="M0,0,.843,2.188l7.439.457C7.877,1.494,7.5.473,7.5.473Z" transform="translate(25.036 34.577)" fill="#f9acc0"/>
      <path id="Vector-68" data-name="Vector" d="M8.4,0,7.555,2.188,0,2.914C.405,1.771.9.473.9.473Z" transform="translate(0.107 34.169)" fill="#f9acc0"/>
      <path id="Vector-69" data-name="Vector" d="M8.191,1.649C4.918,3.11,1.322,7.648,0,12.97H5.852L4.885,17.8a25.765,25.765,0,0,0,11.638,2.759A25.827,25.827,0,0,0,28.21,17.786L27.185,13.6l5.918-.522c0,.008-1.364-7.5-7.6-11.052C20.515-.824,12.8-.4,8.191,1.649Z" transform="translate(0.008 22.855)" fill="#3d5cff"/>
      <path id="Vector-70" data-name="Vector" d="M3.48,0,0,5.477l1.975-.008Z" transform="translate(3.976 30.357)" fill="#224bf4"/>
      <path id="Vector-71" data-name="Vector" d="M2.166,6.783l1.761-.147L0,0Z" transform="translate(25.036 29.671)" fill="#224bf4"/>
      <g id="Group-5" data-name="Group" transform="translate(1.083 23.182)" opacity="0.451">
        <g id="Group-6" data-name="Group" opacity="0.451">
          <path id="Vector-72" data-name="Vector" d="M1.157,2.286A1.15,1.15,0,0,1,0,1.143,1.15,1.15,0,0,1,1.157,0,1.15,1.15,0,0,1,2.314,1.143,1.15,1.15,0,0,1,1.157,2.286Z" transform="translate(11.695 9.999)" fill="#f9edc7" opacity="0.451"/>
          <path id="Vector-73" data-name="Vector" d="M1.157,2.286A1.15,1.15,0,0,1,0,1.143,1.15,1.15,0,0,1,1.157,0,1.15,1.15,0,0,1,2.314,1.143,1.15,1.15,0,0,1,1.157,2.286Z" transform="translate(17.109 7.836)" fill="#f9edc7" opacity="0.451"/>
          <path id="Vector-74" data-name="Vector" d="M1.157,2.286A1.15,1.15,0,0,1,0,1.143,1.15,1.15,0,0,1,1.157,0,1.15,1.15,0,0,1,2.314,1.143,1.15,1.15,0,0,1,1.157,2.286Z" transform="translate(7.687 4)" fill="#f9edc7" opacity="0.451"/>
          <path id="Vector-75" data-name="Vector" d="M1.157,2.286A1.15,1.15,0,0,1,0,1.143,1.15,1.15,0,0,1,1.157,0,1.15,1.15,0,0,1,2.314,1.143,1.15,1.15,0,0,1,1.157,2.286Z" transform="translate(7.687 15.264)" fill="#f9edc7" opacity="0.451"/>
          <path id="Vector-76" data-name="Vector" d="M1.157,2.286A1.15,1.15,0,0,1,0,1.143,1.15,1.15,0,0,1,1.157,0,1.15,1.15,0,0,1,2.314,1.143,1.15,1.15,0,0,1,1.157,2.286Z" transform="translate(17.853 16.407)" fill="#f9edc7" opacity="0.451"/>
          <path id="Vector-77" data-name="Vector" d="M1.157,2.286A1.15,1.15,0,0,1,0,1.143,1.15,1.15,0,0,1,1.157,0,1.15,1.15,0,0,1,2.314,1.143,1.15,1.15,0,0,1,1.157,2.286Z" transform="translate(27.11 11.591)" fill="#f9edc7" opacity="0.451"/>
          <path id="Vector-78" data-name="Vector" d="M1.157,2.286A1.15,1.15,0,0,1,0,1.143,1.15,1.15,0,0,1,1.157,0,1.15,1.15,0,0,1,2.314,1.143,1.15,1.15,0,0,1,1.157,2.286Z" transform="translate(0 7.265)" fill="#f9edc7" opacity="0.451"/>
          <path id="Vector-79" data-name="Vector" d="M1.157,2.286A1.15,1.15,0,0,1,0,1.143,1.15,1.15,0,0,1,1.157,0,1.15,1.15,0,0,1,2.314,1.143,1.15,1.15,0,0,1,1.157,2.286Z" transform="translate(27.523 4.898)" fill="#f9edc7" opacity="0.451"/>
          <path id="Vector-80" data-name="Vector" d="M1.157,2.286A1.15,1.15,0,0,1,0,1.143,1.15,1.15,0,0,1,1.157,0,1.15,1.15,0,0,1,2.314,1.143,1.15,1.15,0,0,1,1.157,2.286Z" transform="translate(20.415)" fill="#f9edc7" opacity="0.451"/>
        </g>
      </g>
      <path id="Vector-81" data-name="Vector" d="M.059,6.213A.084.084,0,0,1,0,6.115L1.655.059A.085.085,0,0,1,1.754,0a.084.084,0,0,1,.058.1L.159,6.156a.079.079,0,0,1-.074.057Z" transform="translate(5.875 29.702)" fill="#1f1f39"/>
      <path id="Vector-82" data-name="Vector" d="M2.121,6.886.005.1a.076.076,0,0,1,.05-.1.077.077,0,0,1,.1.049L2.278,6.837a.076.076,0,0,1-.05.1c-.017,0-.025.008-.033.008A.079.079,0,0,1,2.121,6.886Z" transform="translate(24.923 29.568)" fill="#1f1f39"/>
      <g id="Group-7" data-name="Group" transform="translate(7.787)">
        <path id="Vector-83" data-name="Vector" d="M.285,5.8C1.359,3.673,2.847,3.51,2.847,3.51A6.361,6.361,0,0,1,8.963,0c4.711,0,5.786,4.571,5.786,4.571a2.925,2.925,0,0,1,2.066,2.775c-.083,2.122-2.083,7-2.083,7L1.524,11.754S-.79,7.918.285,5.8Z" transform="translate(0.615)" fill="#fff"/>
        <g id="Group-8" data-name="Group" transform="translate(0 6.599)">
          <path id="Vector-84" data-name="Vector" d="M1.14.211A2.281,2.281,0,0,0,.668,3.827c1.017,1.159,3.579.89,3.579.89L3.561.513A2.365,2.365,0,0,0,1.14.211Z" transform="translate(0 4.095)" fill="#f9acc0"/>
          <g id="Group-9" data-name="Group" transform="translate(1.683)">
            <path id="Vector-85" data-name="Vector" d="M3.108.211a2.286,2.286,0,0,1,.471,3.616C2.562,4.986,0,4.717,0,4.717L.686.513A2.365,2.365,0,0,1,3.108.211Z" transform="translate(12.499 4.095)" fill="#f9acc0"/>
            <path id="Vector-86" data-name="Vector" d="M2.093,2.483a2.647,2.647,0,0,0-.521-1.241A2.884,2.884,0,0,0,.076.2.107.107,0,0,1,0,.075.108.108,0,0,1,.126,0,3.055,3.055,0,0,1,1.737,1.136a2.7,2.7,0,0,1,.554,1.347.1.1,0,0,1-.2,0Z" transform="translate(0 5.472)" fill="#1f1f39"/>
            <path id="Vector-87" data-name="Vector" d="M.059,2.311a.1.1,0,0,1-.05-.139A6.449,6.449,0,0,1,1.043.711,2.239,2.239,0,0,1,2.109,0a.1.1,0,0,1,.116.082A.1.1,0,0,1,2.142.2,2.135,2.135,0,0,0,1.183.85a6.163,6.163,0,0,0-.992,1.4A.105.105,0,0,1,.1,2.319.063.063,0,0,1,.059,2.311Z" transform="translate(13.233 5.529)" fill="#1f1f39"/>
            <path id="Vector-88" data-name="Vector" d="M.389,8.8a7.869,7.869,0,0,0,2.43,3.747L2.48,17.186s.471,1.02,2.967,1.02c2.7,0,3.447-1.02,3.447-1.02l-.132-4.563s1.686-.269,2.5-3.273a15.274,15.274,0,0,0,.405-5.657s-3.984.612-5.331-1.02S3.629-.6,1.67.216A2.811,2.811,0,0,0,.125,3.277,16.312,16.312,0,0,0,.389,8.8Z" transform="translate(1.902)" fill="#f9d2dd"/>
            <path id="Vector-89" data-name="Vector" d="M.612,1.437A.671.671,0,0,1,0,.718.671.671,0,0,1,.612,0a.671.671,0,0,1,.612.718A.671.671,0,0,1,.612,1.437Z" transform="translate(4.986 5.187)" fill="#1f1f39"/>
            <path id="Vector-90" data-name="Vector" d="M.612,1.437A.671.671,0,0,1,0,.718.671.671,0,0,1,.612,0a.671.671,0,0,1,.612.718A.671.671,0,0,1,.612,1.437Z" transform="translate(9.441 5.187)" fill="#1f1f39"/>
            <path id="Vector-91" data-name="Vector" d="M.062,2.147c.207.408.744.2.744.2S.269,2.212.269,1.8.228,0,.228,0A6.436,6.436,0,0,0,.062,2.147Z" transform="translate(7.295 4.747)" fill="#1f1f39"/>
            <path id="Vector-92" data-name="Vector" d="M0,3.379C.041,3.371,4.472,1.673,5.306.9c0-.473.017-.824.017-.824A5.577,5.577,0,0,1,2.554.482,5.906,5.906,0,0,1,.19,0C.2.416.041,3.216,0,3.379Z" transform="translate(4.531 12.55)" fill="#f9acc0"/>
            <g id="Group-10" data-name="Group" transform="translate(2.903 6.763)">
              <path id="Vector-93" data-name="Vector" d="M1.314,1.633C.588,1.633,0,1.267,0,.816S.588,0,1.314,0,2.628.365,2.628.816,2.04,1.633,1.314,1.633Z" transform="translate(6.951 0)" fill="#f9acc0"/>
              <path id="Vector-94" data-name="Vector" d="M1.314,1.633C.588,1.633,0,1.267,0,.816S.588,0,1.314,0,2.628.365,2.628.816,2.04,1.633,1.314,1.633Z" transform="translate(0 0)" fill="#f9acc0"/>
            </g>
          </g>
        </g>
        <path id="Vector-95" data-name="Vector" d="M4.182,7.126a6.22,6.22,0,0,0,6.141-1.477c.967-1.069,1-4.506,1-4.506L12.332.816S12.6,7.208,11.29,8.93A5.836,5.836,0,0,1,6.083,11.1,5.318,5.318,0,0,1,1.818,8.848C.5,7.126,0,1.143,0,1.143L.661,0S1.2,6.383,4.182,7.126Z" transform="translate(3.049 8.897)" fill="#fff"/>
        <path id="Vector-96" data-name="Vector" d="M1,.608A4.438,4.438,0,0,0,1.993.036s.165-.082.248,0a1.806,1.806,0,0,1-.909,1.143A1.1,1.1,0,0,1,.092.771C-.156.444.175.526.175.526A1.877,1.877,0,0,0,1,.608Z" transform="translate(8.494 14.167)" fill="#f95368"/>
      </g>
    </g>
  </g>
</svg>
