<svg xmlns="http://www.w3.org/2000/svg" width="26.973" height="26.54" viewBox="0 0 26.973 26.54">
  <path id="touchID" d="M-12.439-11.555a.919.919,0,0,0,1.184-.574A11.662,11.662,0,0,1-.17-20.027,10.587,10.587,0,0,1,4.881-18.9c.563.27,1.09.27,1.313-.234a.812.812,0,0,0-.434-1.1A10.73,10.73,0,0,0-.17-21.727a13.143,13.143,0,0,0-12.727,8.8A.994.994,0,0,0-12.439-11.555ZM-10.646-.773a.864.864,0,0,0,1.266.141A4.288,4.288,0,0,0-8.021-3.926c0-1.687-.727-2.555-.727-4.547A8.59,8.59,0,0,1-.205-17.016c5.566,0,9.211,4.582,9.211,11.426A15.166,15.166,0,0,1,8.139.023a.875.875,0,0,0,.375,1.148A.871.871,0,0,0,9.7.7a17.863,17.863,0,0,0,1.008-6.3c0-7.828-4.336-13.1-10.91-13.1a10.286,10.286,0,0,0-10.23,10.23c0,1.98.75,3.316.762,4.523a2.744,2.744,0,0,1-.809,1.992A.9.9,0,0,0-10.646-.773ZM12.7-6.984a.805.805,0,0,0,.785-.926c-.469-4.945-2.109-7.934-4.887-10.512a.844.844,0,0,0-1.219.059.839.839,0,0,0,.129,1.219,13.961,13.961,0,0,1,4.348,9.293A.868.868,0,0,0,12.7-6.984ZM-5-5.437a7.9,7.9,0,0,1-.7-3A5.507,5.507,0,0,1-.17-13.98a4.65,4.65,0,0,1,2.5.563A.767.767,0,0,0,3.381-13.7a.873.873,0,0,0-.375-1.219A6.363,6.363,0,0,0-.17-15.68,7.232,7.232,0,0,0-7.412-8.437a10.329,10.329,0,0,0,.75,3.645.889.889,0,0,0,1.207.516A.886.886,0,0,0-5-5.437ZM4.389-11.66A12.191,12.191,0,0,1,6.006-4.98C6.006-1.969,5.2.9,3.9,2.5A.892.892,0,0,0,3.932,3.68.862.862,0,0,0,5.2,3.586,15.013,15.013,0,0,0,7.682-5.027a13.466,13.466,0,0,0-1.828-7.535.912.912,0,0,0-1.219-.4A.875.875,0,0,0,4.389-11.66ZM-5.033,3.105A8.89,8.89,0,0,0-1.9-3.973c-.023-2.168-.773-3.48-.773-4.605a2.3,2.3,0,0,1,2.5-2.379c2.121,0,3.012,2.32,3.105,5.871C3.041-1.512,1.787,1.723-.053,3.3a.879.879,0,0,0-.2,1.148.839.839,0,0,0,1.266.129c2-1.816,3.516-5.754,3.5-9.785-.012-4.535-1.441-7.441-4.7-7.441A3.91,3.91,0,0,0-4.354-8.719c0,1.406.727,3.094.75,4.746A7.24,7.24,0,0,1-6.076,1.781a.866.866,0,0,0-.211,1.184A.829.829,0,0,0-5.033,3.105Zm-6.832-7.324A.881.881,0,0,0-11.326-5.3a13.893,13.893,0,0,1-.434-3.961.843.843,0,0,0-.727-.891.829.829,0,0,0-.973.809,13.045,13.045,0,0,0,.5,4.512A.846.846,0,0,0-11.865-4.219Zm13.02,1.5a11.925,11.925,0,0,0-.41-5.555A.841.841,0,0,0-.334-8.906.832.832,0,0,0-.885-7.84,10.482,10.482,0,0,1-.51-2.977a.789.789,0,0,0,.645.984A.86.86,0,0,0,1.154-2.719Zm-8.742,4.23A6.2,6.2,0,0,0-5.1-1.723.856.856,0,0,0-5.631-2.8a.827.827,0,0,0-1.043.574A4.27,4.27,0,0,1-8.361.023a.953.953,0,0,0-.422,1.16A.821.821,0,0,0-7.588,1.512Zm5.414,2.566A8.026,8.026,0,0,0,.322.492.815.815,0,0,0-.123-.621a.845.845,0,0,0-1.113.539A6.626,6.626,0,0,1-3.205,2.707a.9.9,0,0,0-.223,1.2A.885.885,0,0,0-2.174,4.078Z" transform="translate(13.488 21.727)" fill="#2673d1"/>
</svg>
