<svg id="Mask_Group" data-name="Mask Group" xmlns="http://www.w3.org/2000/svg" width="36" height="49.479" viewBox="0 0 36 49.479">
  <g id="Avatar">
    <path id="Vector" d="M17.692,35.385A17.692,17.692,0,1,1,35.385,17.692,17.692,17.692,0,0,1,17.692,35.385Z" fill="#ffebf0"/>
  </g>
  <path id="Vector-2" data-name="Vector" d="M0,.175A1.694,1.694,0,0,1,1.027.016a1.874,1.874,0,0,1,.919.318" transform="translate(20.2 13.696)" fill="#fff"/>
  <path id="Vector-3" data-name="Vector" d="M1.946.175A1.694,1.694,0,0,0,.919.016,1.874,1.874,0,0,0,0,.334" transform="translate(15.13 13.696)" fill="#fff"/>
  <g id="Group" transform="translate(0 27.207)">
    <path id="Vector-4" data-name="Vector" d="M0,0,2.633,6.964A27.74,27.74,0,0,0,8.962,2.872C8.5,1.529,8.1.513,8.1.513Z" transform="translate(27.038 12.692)" fill="#da5742"/>
    <path id="Vector-5" data-name="Vector" d="M6.356,7.283,9.1,0l-8.1.513C1,.521.518,1.75,0,3.288A27.543,27.543,0,0,0,6.356,7.283Z" transform="translate(0 12.507)" fill="#da5742"/>
    <path id="Vector-6" data-name="Vector" d="M0,0,.91,2.369l8.034.495C8.507,1.617,8.1.513,8.1.513Z" transform="translate(27.038 12.692)" fill="#c43d28"/>
    <path id="Vector-7" data-name="Vector" d="M9.069,0l-.91,2.369L0,3.155C.437,1.918.973.513.973.513Z" transform="translate(0.116 12.251)" fill="#c43d28"/>
    <path id="Vector-8" data-name="Vector" d="M8.837,1.786C5.3,3.377,1.428,8.291,0,14.054H6.32L5.275,19.286a27.8,27.8,0,0,0,12.577,2.987,27.727,27.727,0,0,0,12.622-3.014l-1.107-4.534,6.391-.566c-.009,0-1.482-8.131-8.221-11.976C22.137-.891,13.818-.432,8.837,1.786Z" transform="translate(0.01)" fill="#3d5cff"/>
    <path id="Vector-9" data-name="Vector" d="M3.758,0,0,5.93l2.133-.009Z" transform="translate(4.294 8.123)" fill="#224bf4"/>
    <path id="Vector-10" data-name="Vector" d="M2.339,7.344l1.9-.159L0,0Z" transform="translate(27.038 7.381)" fill="#224bf4"/>
    <path id="Vector-11" data-name="Vector" d="M.064,6.727A.091.091,0,0,1,0,6.621L1.787.064A.092.092,0,0,1,1.894,0a.091.091,0,0,1,.062.106L.171,6.666a.086.086,0,0,1-.08.062Z" transform="translate(6.345 7.415)" fill="#1f1f39"/>
    <path id="Vector-12" data-name="Vector" d="M2.291,7.456.006.112A.082.082,0,0,1,.059.006.083.083,0,0,1,.166.059L2.46,7.4a.082.082,0,0,1-.054.106c-.018,0-.027.009-.036.009A.086.086,0,0,1,2.291,7.456Z" transform="translate(26.916 7.269)" fill="#1f1f39"/>
  </g>
  <path id="Vector-13" data-name="Vector" d="M3.1,11.844s-2.089,0-2.651-.9A1.171,1.171,0,0,1,.71,9.4,3.184,3.184,0,0,1,.174,6.55,2.149,2.149,0,0,1,2.531,5.286S1.326,3.174,2.8,1.592c1.8-1.944,4.82,0,4.82,0A1.513,1.513,0,0,1,9.127.328c1.3,0,1.3.778,1.3.778A3.019,3.019,0,0,1,13.644.134c3.008.875,2.49,4.18,2.49,4.18a1.354,1.354,0,0,1,1.607,1.069,1.488,1.488,0,0,1-.9,1.847s1.214-.194,1.517.778a1.967,1.967,0,0,1-.8,2.236l-.705,3.4L3.388,14.2Z" transform="translate(8.507 2.725)" fill="#1f1f39"/>
  <g id="Group-2" data-name="Group" transform="translate(8.051 9.606)">
    <g id="Group-3" data-name="Group">
      <path id="Vector-14" data-name="Vector" d="M1.228.219A2.478,2.478,0,0,0,.719,4.134c1.1,1.255,3.865.963,3.865.963l-.4-4.49A3.286,3.286,0,0,0,1.228.219Z" transform="translate(0 4.443)" fill="#c43d28"/>
      <g id="Group-4" data-name="Group" transform="translate(1.815)">
        <path id="Vector-15" data-name="Vector" d="M3.356.229a2.478,2.478,0,0,1,.509,3.915C2.767,5.4,0,5.107,0,5.107L.741.556A2.549,2.549,0,0,1,3.356.229Z" transform="translate(13.498 4.434)" fill="#c43d28"/>
        <path id="Vector-16" data-name="Vector" d="M0,2.691A3.012,3.012,0,0,1,.6,1.233,3.358,3.358,0,0,1,2.339,0a.106.106,0,0,1,.134.08.1.1,0,0,1-.08.133A3.176,3.176,0,0,0,.777,1.348,2.837,2.837,0,0,0,.214,2.691.108.108,0,0,1,.107,2.8.108.108,0,0,1,0,2.691Z" transform="translate(14.284 5.921)" fill="#1f1f39"/>
        <path id="Vector-17" data-name="Vector" d="M2.26,2.688A2.871,2.871,0,0,0,1.7,1.345,3.114,3.114,0,0,0,.082.213.116.116,0,0,1,0,.081.121.121,0,0,1,.136,0,3.3,3.3,0,0,1,1.876,1.23a2.927,2.927,0,0,1,.6,1.458.107.107,0,0,1-.214,0Z" transform="translate(0 5.925)" fill="#1f1f39"/>
        <path id="Vector-18" data-name="Vector" d="M2.928,13.589l-.366,5.02s.509,1.1,3.2,1.1c2.919,0,3.722-1.1,3.722-1.1l-.143-4.94s1.821-.292,2.7-3.544A16.579,16.579,0,0,0,12.479,4s-4.3.663-5.757-1.1S3.8-.65,1.687.234-.161,6.819.393,9.532A7.119,7.119,0,0,0,2.928,13.589Z" transform="translate(2.171)" fill="#da5742"/>
        <path id="Vector-19" data-name="Vector" d="M.661,1.555A.726.726,0,0,1,0,.778.726.726,0,0,1,.661,0a.726.726,0,0,1,.661.778A.726.726,0,0,1,.661,1.555Z" transform="translate(5.384 5.263)" fill="#1f1f39"/>
        <path id="Vector-20" data-name="Vector" d="M.661,1.555A.726.726,0,0,1,0,.778.726.726,0,0,1,.661,0a.726.726,0,0,1,.661.778A.726.726,0,0,1,.661,1.555Z" transform="translate(10.196 5.263)" fill="#1f1f39"/>
        <path id="Vector-21" data-name="Vector" d="M.067,2.324c.223.442.8.221.8.221s-.58-.15-.58-.592S.246,0,.246,0A6.986,6.986,0,0,0,.067,2.324Z" transform="translate(7.878 4.786)" fill="#1f1f39"/>
        <path id="Vector-22" data-name="Vector" d="M0,3.659C.045,3.65,4.829,1.812,5.731.972c0-.513.018-.893.018-.893a6.01,6.01,0,0,1-2.99.442A6.364,6.364,0,0,1,.205,0C.214.451.045,3.482,0,3.659Z" transform="translate(4.893 13.589)" fill="#c43d28"/>
        <g id="Group-5" data-name="Group" transform="translate(3.135 6.969)">
          <path id="Vector-23" data-name="Vector" d="M1.419,1.768C.635,1.768,0,1.372,0,.884S.635,0,1.419,0,2.839.4,2.839.884,2.2,1.768,1.419,1.768Z" transform="translate(7.507)" fill="#c43d28"/>
          <path id="Vector-24" data-name="Vector" d="M1.419,1.768C.635,1.768,0,1.372,0,.884S.635,0,1.419,0,2.839.4,2.839.884,2.2,1.768,1.419,1.768Z" fill="#c43d28"/>
        </g>
      </g>
    </g>
    <path id="Vector-25" data-name="Vector" d="M1.081.658A4.79,4.79,0,0,0,2.153.039s.179-.088.268,0a1.954,1.954,0,0,1-.982,1.237A1.185,1.185,0,0,1,.1.835C-.168.481.189.57.189.57A2.023,2.023,0,0,0,1.081.658Z" transform="translate(9.17 8.282)" fill="#fff"/>
    <path id="Vector-26" data-name="Vector" d="M2.589,2.386c1.339.354,1.089.972,1.669.707s.75-.8,1.928-.619.919.8,1.669.707a6.475,6.475,0,0,0,2.589-1.5c.589-.53,1.419-1.414,1.419-1.414s-.536,3.712-3.517,4.6c-2.241.663-5.418.354-6.838-1.679A7.453,7.453,0,0,1,0,0S1.25,2.033,2.589,2.386Z" transform="translate(4.271 9.382)" fill="#1f1f39"/>
    <path id="Vector-27" data-name="Vector" d="M.048.728A.1.1,0,0,1,.021.578L.378.048A.1.1,0,0,1,.53.021a.1.1,0,0,1,.027.15L.2.7A.11.11,0,0,1,.111.746.167.167,0,0,1,.048.728Z" transform="translate(8.177 10.598)" fill="#1f1f39"/>
    <path id="Vector-28" data-name="Vector" d="M.019.523A.11.11,0,0,1,.046.372L.581.019A.112.112,0,0,1,.733.045.11.11,0,0,1,.706.2L.171.549A.13.13,0,0,1,.108.567.11.11,0,0,1,.019.523Z" transform="translate(6.306 10.432)" fill="#1f1f39"/>
    <path id="Vector-29" data-name="Vector" d="M0,.548V.106A.108.108,0,0,1,.107,0,.115.115,0,0,1,.214.106V.548A.1.1,0,0,1,.107.654.108.108,0,0,1,0,.548Z" transform="translate(10.145 10.867)" fill="#1f1f39"/>
    <path id="Vector-30" data-name="Vector" d="M.188.592.009.15A.107.107,0,0,1,.072.009.109.109,0,0,1,.214.071L.393.513A.107.107,0,0,1,.33.654C.322.663.313.663.295.663A.116.116,0,0,1,.188.592Z" transform="translate(11.654 10.592)" fill="#1f1f39"/>
    <path id="Vector-31" data-name="Vector" d="M.682.56.057.207A.113.113,0,0,1,.012.056.115.115,0,0,1,.164.012L.789.366A.114.114,0,0,1,.735.578.128.128,0,0,1,.682.56Z" transform="translate(13.177 10.501)" fill="#1f1f39"/>
  </g>
  <g id="Group-6" data-name="Group" transform="translate(0.313 31.19)" opacity="0.592">
    <g id="Group-7" data-name="Group" transform="translate(4.305)" opacity="0.592">
      <path id="Vector-32" data-name="Vector" d="M.243.571A.727.727,0,0,0,.805.615c.232-.062.473-.177.705-.053a.5.5,0,0,1,.25.566c-.018.08.107.115.125.035a.631.631,0,0,0-.7-.778,3.741,3.741,0,0,1-.7.141C.234.509.171.279.127.058A.064.064,0,1,0,0,.085.73.73,0,0,0,.243.571Z" transform="translate(8.127 1.793)" fill="#bfe3c6" opacity="0.592"/>
      <path id="Vector-33" data-name="Vector" d="M.072.687a1.1,1.1,0,0,0,.464.46c.205.124.42.283.366.548-.062.283-.339.442-.571.574A.068.068,0,0,0,.4,2.384a1.315,1.315,0,0,0,.589-.53A.547.547,0,0,0,.9,1.244C.741,1.076.509,1,.348.837A.687.687,0,0,1,.205.068C.223,0,.089-.029.063.042A.811.811,0,0,0,.072.687Z" transform="translate(7.04 6.069)" fill="#bfe3c6" opacity="0.592"/>
      <path id="Vector-34" data-name="Vector" d="M.131,1.631A.411.411,0,0,1,.31,1.2c.339-.212.678.1,1.009.124.3.027.5-.239.58-.5A.975.975,0,0,0,1.783.031.068.068,0,0,0,1.667.1a.819.819,0,0,1,.018.866.369.369,0,0,1-.455.194A4.389,4.389,0,0,0,.747,1a.622.622,0,0,0-.7.283.857.857,0,0,0-.045.424,2.54,2.54,0,0,0,.08.521c.018.08.143.044.125-.035A2.47,2.47,0,0,1,.131,1.631Z" transform="translate(0 2.819)" fill="#bfe3c6" opacity="0.592"/>
      <path id="Vector-35" data-name="Vector" d="M.241.283A.253.253,0,0,1,.464.31,2.232,2.232,0,0,1,.821.6a1.652,1.652,0,0,0,.812.362.864.864,0,0,0,1-.919C2.616-.035,2.491,0,2.509.08a.685.685,0,0,1-.473.707A1.108,1.108,0,0,1,1.1.637,2.62,2.62,0,0,1,.705.328.679.679,0,0,0,.366.142C.152.116-.08.328.027.54.063.61.179.549.143.469S.179.319.241.283Z" transform="translate(4.407 13.216)" fill="#bfe3c6" opacity="0.592"/>
      <path id="Vector-36" data-name="Vector" d="M0,.736a.771.771,0,0,0,.375.61c.223.168.545.318.6.619.054.336-.339.407-.589.38-.089-.009-.08.124,0,.133a.681.681,0,0,0,.661-.23.56.56,0,0,0-.161-.689c-.205-.2-.5-.3-.661-.548a.765.765,0,0,1,.205-.9C.482.055.384-.042.33.02A1.1,1.1,0,0,0,0,.736Z" transform="translate(13.726 11.031)" fill="#bfe3c6" opacity="0.592"/>
      <path id="Vector-37" data-name="Vector" d="M.832.362A.7.7,0,0,0,.859,1.1a1.212,1.212,0,0,1,.187.424.571.571,0,0,1-.116.415.551.551,0,0,1-.812.044c-.062-.062-.161.035-.1.1a.72.72,0,0,0,.768.133.69.69,0,0,0,.393-.654C1.163,1.246.868,1.025.868.707A.589.589,0,0,1,1.421.133a.066.066,0,1,0,0-.133A.713.713,0,0,0,.832.362Z" transform="translate(20.374 12.96)" fill="#bfe3c6" opacity="0.592"/>
      <path id="Vector-38" data-name="Vector" d="M.069,1.144a2.131,2.131,0,0,0,.464.627c.107.115.2.283.027.389a.863.863,0,0,1-.491.1.066.066,0,1,0,0,.133c.223.009.616-.035.705-.274S.631,1.683.488,1.533a1.137,1.137,0,0,1-.357-.8.642.642,0,0,1,.428-.6A.069.069,0,1,0,.524,0,.841.841,0,0,0,.069,1.144Z" transform="translate(17.201)" fill="#bfe3c6" opacity="0.592"/>
      <path id="Vector-39" data-name="Vector" d="M.857.216c.268.141.321.468.411.725a.839.839,0,0,0,.5.566,1.22,1.22,0,0,0,.812,0,1.23,1.23,0,0,0,.652-.7c.036-.08-.1-.115-.125-.035a1.083,1.083,0,0,1-.643.636.959.959,0,0,1-.857-.159c-.214-.194-.232-.513-.339-.769a.759.759,0,0,0-.5-.46.789.789,0,0,0-.741.2C-.045.3.044.393.107.331A.628.628,0,0,1,.857.216Z" transform="translate(16.306 6.08)" fill="#bfe3c6" opacity="0.592"/>
      <path id="Vector-40" data-name="Vector" d="M.894.254A1.073,1.073,0,0,0,.9.943c.045.23.054.495-.179.627a.469.469,0,0,1-.6-.159c-.045-.071-.161,0-.116.071a.617.617,0,0,0,.545.283A.562.562,0,0,0,1.037,1.4,1.655,1.655,0,0,0,.983.652a.521.521,0,0,1,.062-.38A.26.26,0,0,1,1.331.157c.08.009.116-.115.036-.141A.417.417,0,0,0,.894.254Z" transform="translate(24.49 3.541)" fill="#bfe3c6" opacity="0.592"/>
    </g>
    <path id="Vector-41" data-name="Vector" d="M6.542.007V.1L0,.088V0Z" transform="translate(28.613 9.608) rotate(-5.947)" fill="#bfe3c6" opacity="0.592"/>
    <path id="Vector-42" data-name="Vector" d="M6.445,0V.09H0V0Z" transform="translate(0 8.717) rotate(-1.231)" fill="#bfe3c6" opacity="0.592"/>
  </g>
</svg>
